          <svg width="1155" height="217" viewBox="0 0 1155 217" fill="none" xmlns="http://www.w3.org/2000/svg">
<path d="M264.843 174.543L249.056 186.822V162.074L267.285 152.131L273.841 137.438L293.307 131.666L291.605 125.924L277.053 130.239L283.8 115.117L305.49 106.909L308.852 82.3702L329.107 68.2474L325.682 63.3349L309.957 74.2983L311.459 63.3339L305.526 62.5209L300.718 97.628L284.442 78.1882L279.85 82.0325L297.764 103.43L282.479 109.213L267.59 91.8425L271.333 71.1206L265.439 70.056L262.105 88.5188L245.217 81.5018L242.919 87.0322L262.582 95.2017L278.067 113.268L264.545 143.575L256.634 130.667L251.528 133.796L260.764 148.866L246.095 156.867L226.815 145.85L236.2 136.017L231.868 131.882L223.274 140.885L219.045 128.199L234.131 108.264L229.355 104.65L214.436 124.365L193.317 120.405L213.008 92.1313L208.093 88.7085L190.386 114.134L187.272 82.9912L201.094 56.411L226.43 51.2308L225.231 45.3637L203.644 49.7769L212.235 24.9588L206.576 23L199.085 44.6404L193.332 28.1484L187.677 30.121L195.842 53.529L184.111 76.0885L170.208 51.1589L164.978 54.0759L181.286 83.3173L182.637 96.8279L166.303 91.0345L164.301 96.6786L183.296 103.416L185.457 125.024L213.422 130.268L217.544 142.633L201.958 139.602L200.815 145.481L220.949 149.395L243.067 162.035V217H249.056V194.408L268.52 179.271L264.843 174.543Z" fill="#80D8B6"/>
<path d="M222.892 183.757L213.089 169.692L208.175 173.117L219.29 189.064V196.818L212.248 192.358L209.044 197.418L219.29 203.906V217H225.278V189.542L235.326 181.322L231.533 176.686L222.892 183.757Z" fill="#80D8B6" fill-opacity="0.5"/>
<path d="M146.717 182.065L136.914 168L132 171.425L143.115 187.372V195.126L136.073 190.666L132.869 195.725L143.115 202.214V215.308H149.103V187.849L159.151 179.629L155.358 174.994L146.717 182.065Z" fill="#80D8B6" fill-opacity="0.5"/>
<path d="M50.8029 180.568L39.6101 166L34 169.547L46.6902 186.065V194.096L38.6507 189.477L34.9925 194.717L46.6902 201.438V215H53.5279V186.559L65 178.045L60.6696 173.244L50.8029 180.568Z" fill="#80D8B6" fill-opacity="0.5"/>
<path d="M306.749 185.145L294.777 187.756L286.061 171.569L296.208 156.347L291.226 153.025L282.282 166.441L276.24 159.333L271.677 163.212L280.084 173.102L289.205 190.04L275.524 198.06V217H281.513V201.491L294.314 193.987L308.025 190.996L306.749 185.145Z" fill="#80D8B6" fill-opacity="0.5"/>
<path d="M367.595 178.646L354.42 181.545L344.828 163.58L355.996 146.687L350.512 143L340.67 157.889L334.021 150.001L329 154.305L338.251 165.281L348.288 184.08L333.233 192.98V214H339.824V196.787L353.911 188.46L369 185.14L367.595 178.646Z" fill="#80D8B6" fill-opacity="0.5"/>
<path d="M192.496 191.302L186.001 197.278V161.002L194.934 150.793L190.427 146.849L183.345 154.944L174.734 141.855L178.524 127.958L172.747 126.382L170.167 135.841L163.709 127.623L159 131.323L169.057 144.123L180.012 160.774V183.38L170.771 174.735L166.68 179.108L180.012 191.58V217H186.001V205.415L196.55 195.71L192.496 191.302Z" fill="#80D8B6"/>
<path d="M30.329 190.463L24.448 195.936V162.71L32.5363 153.359L28.4557 149.747L22.0429 157.161L14.2466 145.173L17.6782 132.443L12.4472 131L10.1113 139.665L4.26418 132.137L0 135.526L9.10649 147.25L19.0255 162.501V183.206L10.6582 175.289L6.95375 179.294L19.0255 190.717V214H24.448V203.389L34 194.5L30.329 190.463Z" fill="#80D8B6"/>
<path d="M720.638 91.6883C735.23 90.1579 746.641 77.7847 746.641 62.7945H740.404C740.404 74.2622 731.9 83.7772 720.868 85.3735C720.691 74.4828 717.723 68.8274 714.85 63.3532C712.549 58.9702 710.362 54.7798 709.727 47.5781C724.019 45.7663 735.11 33.5397 735.11 18.7634H728.873C728.873 30.15 720.489 39.6144 709.57 41.3103C709.874 32.5317 712.295 27.9159 714.849 23.0504C717.812 17.4056 720.877 11.5694 720.877 0H714.64C714.64 10.0318 712.059 14.9473 709.328 20.1514C706.522 25.4964 703.627 31.0176 703.328 41.4129C692.028 40.0602 683.237 30.4216 683.237 18.7629H677C677 33.9125 688.657 46.3847 703.471 47.697C704.151 56.3827 706.776 61.3902 709.327 66.2511C711.966 71.279 714.457 76.0516 714.624 85.4139C703.437 83.9565 694.767 74.3715 694.767 62.794H688.531C688.531 77.727 699.856 90.0598 714.368 91.6668C713.638 98.3349 711.533 102.352 709.327 106.553C706.376 112.176 703.325 117.991 703.302 129.472C692.014 128.108 683.236 118.475 683.236 106.826H677C677 122.029 688.74 134.535 703.63 135.771C704.497 143.443 706.944 148.11 709.327 152.651C712.06 157.854 714.64 162.769 714.64 172.8C714.64 173.033 714.632 173.249 714.628 173.477C703.439 172.022 694.767 162.436 694.767 150.856H688.53C688.53 165.715 699.744 177.996 714.152 179.701C713.278 185.411 711.346 189.105 709.327 192.949C706.364 198.594 703.3 204.43 703.3 215.998H709.537C709.537 205.967 712.117 201.052 714.849 195.848C717.149 191.468 719.508 186.97 720.449 179.768C735.131 178.325 746.64 165.91 746.64 150.856H740.403C740.403 162.322 731.901 171.837 720.87 173.435C720.872 173.223 720.875 173.014 720.875 172.799C720.875 161.232 717.811 155.395 714.849 149.751C712.728 145.712 710.705 141.835 709.902 135.617C724.11 133.727 735.109 121.54 735.109 106.825H728.872C728.872 118.222 720.473 127.694 709.539 129.377C709.579 119.501 712.137 114.615 714.848 109.451C717.323 104.74 719.866 99.8914 720.638 91.6883Z" fill="#9BC9CC"/>
<path d="M766.871 172.233C766.873 172.022 766.876 171.813 766.876 171.598C766.876 160.03 763.812 154.194 760.85 148.55C758.729 144.511 756.706 140.635 755.903 134.416C770.111 132.526 781.11 120.339 781.11 105.624H774.873C774.873 117.021 766.474 126.493 755.54 128.176C755.58 118.3 758.138 113.414 760.849 108.251C763.323 103.538 765.865 98.6896 766.638 90.4865C781.229 88.9561 792.641 76.583 792.641 61.5927H786.404C786.404 73.0605 777.9 82.5755 766.867 84.1718C766.691 73.2811 763.723 67.6256 760.849 62.1514C758.117 56.9473 755.537 52.0313 755.537 42H749.3C749.3 53.5694 752.364 59.4056 755.327 65.0499C757.966 70.0778 760.457 74.8503 760.623 84.2126C749.437 82.7552 740.767 73.1703 740.767 61.5927H734.531C734.531 76.5258 745.856 88.8586 760.368 90.4656C759.638 97.1342 757.533 101.15 755.327 105.352C752.376 110.974 749.325 116.79 749.302 128.27C738.014 126.906 729.236 117.273 729.236 105.624H723C723 120.827 734.74 133.332 749.63 134.57C750.497 142.242 752.944 146.909 755.327 151.449C758.06 156.652 760.64 161.567 760.64 171.598C760.64 171.831 760.632 172.048 760.628 172.275C749.439 170.82 740.767 161.234 740.767 149.654H734.531C734.531 164.513 745.744 176.795 760.152 178.5C759.279 184.209 757.347 187.903 755.327 191.748C752.365 197.392 749.301 203.228 749.301 214.796H755.537C755.537 204.765 758.118 199.85 760.85 194.646C763.149 190.266 765.508 185.768 766.45 178.567C781.131 177.123 792.641 164.708 792.641 149.654H786.404C786.405 161.121 777.902 170.636 766.871 172.233Z" fill="#83B6B7" fill-opacity="0.5"/>
<path d="M858.608 186.934C858.61 186.79 858.612 186.647 858.612 186.501C858.612 178.601 856.544 174.616 854.544 170.761C853.113 168.003 851.748 165.356 851.206 161.109C860.795 159.819 868.218 151.497 868.218 141.448H864.009C864.009 149.231 858.34 155.699 850.961 156.848C850.988 150.104 852.714 146.768 854.544 143.242C856.213 140.024 857.929 136.712 858.451 131.111C868.298 130.066 876 121.616 876 111.38H871.791C871.791 119.211 866.051 125.708 858.606 126.798C858.487 119.361 856.483 115.499 854.544 111.761C852.7 108.207 850.959 104.85 850.959 98H846.75C846.75 105.901 848.818 109.886 850.817 113.74C852.598 117.174 854.279 120.433 854.392 126.826C846.842 125.831 840.991 119.286 840.991 111.38H836.782C836.782 121.577 844.426 129.999 854.219 131.096C853.727 135.65 852.306 138.393 850.817 141.262C848.825 145.102 846.767 149.073 846.751 156.913C839.133 155.981 833.209 149.403 833.209 141.448H829C829 151.83 836.924 160.369 846.972 161.214C847.557 166.454 849.209 169.641 850.817 172.741C852.662 176.294 854.403 179.651 854.403 186.501C854.403 186.66 854.397 186.807 854.395 186.963C846.843 185.969 840.991 179.423 840.991 171.516H836.782C836.782 181.663 844.35 190.049 854.074 191.214C853.484 195.113 852.18 197.635 850.817 200.26C848.818 204.115 846.75 208.1 846.75 216H850.959C850.959 209.15 852.701 205.793 854.544 202.24C856.096 199.249 857.688 196.177 858.324 191.259C868.232 190.273 876 181.796 876 171.515H871.791C871.791 179.346 866.053 185.843 858.608 186.934Z" fill="#83B6B7" fill-opacity="0.5"/>
<path d="M937.278 180.008C937.28 179.839 937.282 179.672 937.282 179.501C937.282 170.262 934.818 165.601 932.436 161.094C930.731 157.868 929.104 154.772 928.458 149.806C939.883 148.297 948.728 138.564 948.728 126.812H943.713C943.713 135.914 936.959 143.479 928.167 144.823C928.198 136.936 930.255 133.033 932.435 128.91C934.425 125.146 936.469 121.274 937.09 114.723C948.824 113.5 958 103.619 958 91.6473H952.985C952.985 100.806 946.146 108.405 937.275 109.68C937.133 100.982 934.746 96.4653 932.435 92.0935C930.239 87.9374 928.164 84.0113 928.164 76H923.149C923.149 85.2396 925.612 89.9006 927.995 94.4083C930.117 98.4237 932.12 102.235 932.254 109.712C923.258 108.548 916.287 100.893 916.287 91.6473H911.272C911.272 103.573 920.379 113.423 932.049 114.706C931.461 120.032 929.769 123.239 927.995 126.594C925.622 131.085 923.169 135.729 923.15 144.898C914.073 143.808 907.015 136.115 907.015 126.812H902C902 138.954 911.441 148.941 923.414 149.929C924.111 156.056 926.079 159.783 927.995 163.409C930.193 167.565 932.267 171.49 932.267 179.501C932.267 179.687 932.261 179.86 932.258 180.041C923.26 178.879 916.287 171.224 916.287 161.976H911.272C911.272 173.843 920.289 183.651 931.875 185.012C931.173 189.572 929.619 192.522 927.995 195.593C925.613 200.1 923.149 204.761 923.149 214H928.164C928.164 205.989 930.239 202.063 932.436 197.908C934.285 194.409 936.182 190.817 936.939 185.066C948.745 183.913 958 173.998 958 161.975H952.985C952.985 171.133 946.148 178.732 937.278 180.008Z" fill="#83B6B7" fill-opacity="0.5"/>
<path d="M656.278 181.008C656.28 180.839 656.282 180.672 656.282 180.501C656.282 171.262 653.818 166.601 651.436 162.094C649.731 158.868 648.104 155.772 647.458 150.806C658.883 149.297 667.728 139.564 667.728 127.812H662.713C662.713 136.914 655.959 144.479 647.167 145.823C647.198 137.936 649.255 134.033 651.435 129.91C653.425 126.146 655.469 122.274 656.09 115.723C667.824 114.5 677 104.619 677 92.6473H671.985C671.985 101.806 665.146 109.405 656.275 110.68C656.133 101.982 653.746 97.4653 651.435 93.0935C649.239 88.9374 647.164 85.0113 647.164 77H642.149C642.149 86.2396 644.612 90.9006 646.995 95.4083C649.117 99.4237 651.12 103.235 651.254 110.712C642.258 109.548 635.287 101.893 635.287 92.6473H630.272C630.272 104.573 639.379 114.423 651.049 115.706C650.461 121.032 648.769 124.239 646.995 127.594C644.622 132.085 642.169 136.729 642.15 145.898C633.073 144.808 626.015 137.115 626.015 127.812H621C621 139.954 630.441 149.941 642.414 150.929C643.111 157.056 645.079 160.783 646.995 164.409C649.193 168.565 651.267 172.49 651.267 180.501C651.267 180.687 651.261 180.86 651.258 181.041C642.26 179.879 635.287 172.224 635.287 162.976H630.272C630.272 174.843 639.289 184.651 650.875 186.012C650.173 190.572 648.619 193.522 646.995 196.593C644.613 201.1 642.149 205.761 642.149 215H647.164C647.164 206.989 649.239 203.063 651.436 198.908C653.285 195.409 655.182 191.817 655.939 186.066C667.745 184.913 677 174.998 677 162.975H671.985C671.985 172.133 665.148 179.732 656.278 181.008Z" fill="#83B6B7" fill-opacity="0.5"/>
<path d="M1011.72 188.905C1011.72 188.77 1011.72 188.637 1011.72 188.501C1011.72 181.137 1009.79 177.421 1007.91 173.828C1006.57 171.257 1005.3 168.79 1004.79 164.831C1013.77 163.628 1020.71 155.87 1020.71 146.502H1016.77C1016.77 153.757 1011.47 159.787 1004.56 160.859C1004.58 154.572 1006.2 151.461 1007.91 148.174C1009.48 145.175 1011.08 142.088 1011.57 136.866C1020.79 135.892 1028 128.015 1028 118.472H1024.06C1024.06 125.773 1018.69 131.83 1011.72 132.846C1011.6 125.913 1009.73 122.313 1007.91 118.828C1006.19 115.515 1004.56 112.386 1004.56 106H1000.62C1000.62 113.365 1002.55 117.08 1004.42 120.673C1006.09 123.874 1007.67 126.912 1007.77 132.872C1000.7 131.944 995.225 125.843 995.225 118.472H991.285C991.285 127.979 998.441 135.83 1007.61 136.853C1007.15 141.098 1005.82 143.654 1004.42 146.329C1002.56 149.908 1000.63 153.61 1000.62 160.919C993.486 160.05 987.94 153.918 987.94 146.502H984C984 156.181 991.418 164.141 1000.83 164.929C1001.37 169.813 1002.92 172.784 1004.42 175.674C1006.15 178.986 1007.78 182.115 1007.78 188.501C1007.78 188.649 1007.78 188.787 1007.77 188.932C1000.7 188.005 995.225 181.903 995.225 174.531H991.285C991.285 183.99 998.37 191.809 1007.47 192.894C1006.92 196.529 1005.7 198.88 1004.42 201.327C1002.55 204.92 1000.62 208.636 1000.62 216H1004.56C1004.56 209.614 1006.19 206.485 1007.91 203.173C1009.37 200.384 1010.86 197.521 1011.45 192.937C1020.73 192.018 1028 184.115 1028 174.531H1024.06C1024.06 181.831 1018.69 187.888 1011.72 188.905Z" fill="#83B6B7" fill-opacity="0.5"/>
<path d="M1128.64 91.6883C1143.23 90.1579 1154.64 77.7847 1154.64 62.7945H1148.4C1148.4 74.2622 1139.9 83.7772 1128.87 85.3735C1128.69 74.4828 1125.72 68.8274 1122.85 63.3532C1120.55 58.9702 1118.36 54.7798 1117.73 47.5781C1132.02 45.7663 1143.11 33.5397 1143.11 18.7634H1136.87C1136.87 30.15 1128.49 39.6144 1117.57 41.3103C1117.87 32.5317 1120.29 27.9159 1122.85 23.0504C1125.81 17.4056 1128.88 11.5694 1128.88 0H1122.64C1122.64 10.0318 1120.06 14.9473 1117.33 20.1514C1114.52 25.4964 1111.63 31.0176 1111.33 41.4129C1100.03 40.0602 1091.24 30.4216 1091.24 18.7629H1085C1085 33.9125 1096.66 46.3847 1111.47 47.697C1112.15 56.3827 1114.78 61.3902 1117.33 66.2511C1119.97 71.279 1122.46 76.0516 1122.62 85.4139C1111.44 83.9565 1102.77 74.3715 1102.77 62.794H1096.53C1096.53 77.727 1107.86 90.0598 1122.37 91.6668C1121.64 98.3349 1119.53 102.352 1117.33 106.553C1114.38 112.176 1111.33 117.991 1111.3 129.472C1100.01 128.108 1091.24 118.475 1091.24 106.826H1085C1085 122.029 1096.74 134.535 1111.63 135.771C1112.5 143.443 1114.94 148.11 1117.33 152.651C1120.06 157.854 1122.64 162.769 1122.64 172.8C1122.64 173.033 1122.63 173.249 1122.63 173.477C1111.44 172.022 1102.77 162.436 1102.77 150.856H1096.53C1096.53 165.715 1107.74 177.996 1122.15 179.701C1121.28 185.411 1119.35 189.105 1117.33 192.949C1114.36 198.594 1111.3 204.43 1111.3 215.998H1117.54C1117.54 205.967 1120.12 201.052 1122.85 195.848C1125.15 191.468 1127.51 186.97 1128.45 179.768C1143.13 178.325 1154.64 165.91 1154.64 150.856H1148.4C1148.4 162.322 1139.9 171.837 1128.87 173.435C1128.87 173.223 1128.88 173.014 1128.88 172.799C1128.88 161.232 1125.81 155.395 1122.85 149.751C1120.73 145.712 1118.7 141.835 1117.9 135.617C1132.11 133.727 1143.11 121.54 1143.11 106.825H1136.87C1136.87 118.222 1128.47 127.694 1117.54 129.377C1117.58 119.501 1120.14 114.615 1122.85 109.451C1125.32 104.74 1127.87 99.8914 1128.64 91.6883Z" fill="#9BC9CC" fill-opacity="0.71"/>
<path d="M1089.1 172.387C1089.1 172.175 1089.1 171.966 1089.1 171.751C1089.1 160.169 1086.02 154.326 1083.04 148.675C1080.91 144.632 1078.88 140.751 1078.07 134.525C1092.35 132.633 1103.41 120.432 1103.41 105.699H1097.14C1097.14 117.109 1088.7 126.593 1077.71 128.278C1077.75 118.39 1080.32 113.499 1083.04 108.329C1085.53 103.611 1088.09 98.7565 1088.86 90.5437C1103.53 89.0114 1115 76.6237 1115 61.6158H1108.73C1108.73 73.0971 1100.18 82.6233 1089.09 84.2215C1088.92 73.3179 1085.93 67.6558 1083.04 62.1751C1080.3 56.9649 1077.7 52.0431 1077.7 42H1071.44C1071.44 53.583 1074.52 59.4261 1077.49 65.077C1080.15 70.1108 1082.65 74.889 1082.82 84.2624C1071.57 82.8033 1062.86 73.207 1062.86 61.6158H1056.59C1056.59 76.5665 1067.97 88.9138 1082.56 90.5227C1081.83 97.1992 1079.71 101.22 1077.49 105.426C1074.53 111.056 1071.46 116.878 1071.44 128.372C1060.09 127.006 1051.27 117.362 1051.27 105.699H1045C1045 120.92 1056.8 133.44 1071.77 134.679C1072.64 142.36 1075.1 147.033 1077.49 151.578C1080.24 156.787 1082.83 161.708 1082.83 171.751C1082.83 171.984 1082.83 172.201 1082.82 172.429C1071.58 170.972 1062.86 161.374 1062.86 149.781H1056.59C1056.59 164.658 1067.86 176.953 1082.34 178.661C1081.47 184.377 1079.52 188.075 1077.49 191.924C1074.52 197.575 1071.44 203.418 1071.44 215H1077.71C1077.71 204.957 1080.3 200.036 1083.04 194.826C1085.36 190.441 1087.73 185.938 1088.67 178.727C1103.43 177.282 1115 164.853 1115 149.781H1108.73C1108.73 161.261 1100.18 170.787 1089.1 172.387Z" fill="#83B6B7" fill-opacity="0.5"/>
<path d="M492.307 215H487.161C487.161 204.399 489.806 199.042 492.365 193.861C494.769 188.995 497.038 184.4 497.038 175.001C497.038 165.602 494.768 161.006 492.365 156.141C489.806 150.96 487.161 145.603 487.161 135.002C487.161 124.401 489.806 119.044 492.365 113.863C494.768 108.998 497.038 104.402 497.038 95.0025C497.038 85.6028 494.768 81.007 492.365 76.1412C489.806 70.9597 487.161 65.6023 487.161 55.001C487.161 44.3998 489.806 39.0424 492.365 33.8608C494.768 28.9951 497.038 24.3993 497.038 15H502.184C502.184 25.6012 499.538 30.9587 496.98 36.1398C494.577 41.0055 492.307 45.6017 492.307 55.001C492.307 64.4003 494.577 68.9966 496.98 73.8623C499.538 79.0438 502.184 84.4013 502.184 95.0025C502.184 105.603 499.538 110.961 496.98 116.142C494.577 121.007 492.307 125.603 492.307 135.002C492.307 144.401 494.577 148.997 496.98 153.862C499.538 159.043 502.184 164.4 502.184 175.001C502.184 185.602 499.538 190.959 496.98 196.14C494.577 201.005 492.307 205.601 492.307 215Z" fill="#51CAF4"/>
<path d="M489.741 50.7894C475.788 50.7894 464.478 39.4789 464.478 25.5264C478.43 25.5264 489.741 36.8369 489.741 50.7894Z" fill="#51CAF4"/>
<path d="M489.741 126.93C475.788 126.93 464.478 115.619 464.478 101.667C478.43 101.667 489.741 112.977 489.741 126.93Z" fill="#51CAF4"/>
<path d="M498.161 189.035C484.209 189.035 472.898 177.724 472.898 163.772C486.851 163.772 498.161 175.082 498.161 189.035Z" fill="#51CAF4"/>
<path d="M493.951 72.544C507.903 72.544 519.214 61.2335 519.214 47.281C505.262 47.2805 493.951 58.5915 493.951 72.544Z" fill="#51CAF4"/>
<path d="M493.951 148.684C507.903 148.684 519.214 137.374 519.214 123.421C505.262 123.421 493.951 134.732 493.951 148.684Z" fill="#51CAF4"/>
<path d="M428.756 215H423.61C423.61 204.399 426.255 199.042 428.814 193.861C431.217 188.995 433.487 184.4 433.487 175.001C433.487 165.602 431.217 161.007 428.814 156.141C426.255 150.96 423.61 145.603 423.61 135.002C423.61 124.401 426.255 119.044 428.814 113.863C431.217 108.998 433.487 104.402 433.487 95.0025C433.487 85.6027 431.217 81.0069 428.814 76.1412C426.255 70.9597 423.61 65.6022 423.61 55.001H428.756C428.756 64.4007 431.026 68.9965 433.429 73.8623C435.987 79.0438 438.633 84.4012 438.633 95.0025C438.633 105.603 435.987 110.961 433.429 116.142C431.026 121.007 428.756 125.603 428.756 135.002C428.756 144.401 431.026 148.996 433.429 153.862C435.987 159.043 438.633 164.4 438.633 175.001C438.633 185.602 435.987 190.959 433.429 196.14C431.026 201.005 428.756 205.601 428.756 215Z" fill="#51CAF4" fill-opacity="0.5"/>
<path d="M426.189 126.93C412.237 126.93 400.926 115.619 400.926 101.667C414.879 101.667 426.189 112.977 426.189 126.93Z" fill="#51CAF4" fill-opacity="0.5"/>
<path d="M434.995 187.631C421.043 187.631 409.732 176.321 409.732 162.368C423.685 162.368 434.995 173.679 434.995 187.631Z" fill="#51CAF4" fill-opacity="0.5"/>
<path d="M430.4 72.544C444.353 72.544 455.663 61.2335 455.663 47.281C441.711 47.2805 430.4 58.5915 430.4 72.544Z" fill="#51CAF4" fill-opacity="0.5"/>
<path d="M430.4 148.684C444.353 148.684 455.663 137.374 455.663 123.421C441.711 123.421 430.4 134.732 430.4 148.684Z" fill="#51CAF4" fill-opacity="0.5"/>
<path d="M554.763 215H549.617C549.617 204.399 552.262 199.042 554.821 193.861C557.225 188.995 559.494 184.4 559.494 175.001C559.494 165.602 557.224 161.006 554.821 156.141C552.262 150.96 549.617 145.603 549.617 135.002C549.617 124.401 552.262 119.044 554.821 113.863C557.224 108.998 559.494 104.402 559.494 95.0024H564.64C564.64 105.603 561.994 110.961 559.436 116.142C557.033 121.007 554.763 125.603 554.763 135.002C554.763 144.401 557.033 148.997 559.436 153.862C561.994 159.043 564.64 164.4 564.64 175.001C564.64 185.602 561.994 190.958 559.436 196.14C557.033 201.005 554.763 205.601 554.763 215Z" fill="#51CAF4" fill-opacity="0.5"/>
<path d="M552.197 126.93C538.244 126.93 526.934 115.619 526.934 101.667C540.886 101.667 552.197 112.977 552.197 126.93Z" fill="#51CAF4" fill-opacity="0.5"/>
<path d="M423.715 59.6177C409.762 59.6177 398.452 48.3072 398.452 34.3547C412.404 34.3547 423.715 45.6652 423.715 59.6177Z" fill="#51CAF4" fill-opacity="0.5"/>
<path d="M558.512 189.737C544.56 189.737 533.249 178.426 533.249 164.474C547.202 164.474 558.512 175.784 558.512 189.737Z" fill="#51CAF4" fill-opacity="0.5"/>
<path d="M557.811 156.403C571.763 156.403 583.074 145.093 583.074 131.14C569.121 131.14 557.811 142.451 557.811 156.403Z" fill="#51CAF4" fill-opacity="0.5"/>
<path d="M558.512 189.737C544.56 189.737 533.249 178.426 533.249 164.474C547.202 164.474 558.512 175.784 558.512 189.737Z" fill="#51CAF4" fill-opacity="0.12"/>
<path d="M557.811 156.403C571.763 156.403 583.074 145.093 583.074 131.14C569.121 131.14 557.811 142.451 557.811 156.403Z" fill="#51CAF4" fill-opacity="0.17"/>
<path d="M82.3044 215.645H77.158C77.158 205.044 79.8037 199.687 82.3624 194.506C84.7654 189.641 87.0349 185.045 87.0349 175.646C87.0349 166.247 84.7649 161.652 82.3624 156.786C79.8037 151.605 77.158 146.248 77.158 135.647C77.158 125.047 79.8037 119.689 82.3624 114.508C84.7654 109.643 87.0349 105.047 87.0349 95.6477C87.0349 86.248 84.7649 81.6522 82.3624 76.7865C79.8037 71.6049 77.158 66.2475 77.158 55.6462H82.3044C82.3044 65.046 84.5745 69.6418 86.9769 74.5075C89.5356 79.6891 92.1814 85.0465 92.1814 95.6477C92.1814 106.248 89.5356 111.606 86.9769 116.787C84.574 121.652 82.3044 126.248 82.3044 135.647C82.3044 145.046 84.5745 149.642 86.9769 154.507C89.5356 159.688 92.1814 165.045 92.1814 175.646C92.1814 186.247 89.5356 191.604 86.9769 196.785C84.5745 201.65 82.3044 206.246 82.3044 215.645Z" fill="#51CAF4" fill-opacity="0.5"/>
<path d="M79.7376 127.575C65.7851 127.575 54.4746 116.265 54.4746 102.312C68.4271 102.312 79.7376 113.623 79.7376 127.575Z" fill="#51CAF4" fill-opacity="0.5"/>
<path d="M88.5438 188.276C74.5913 188.276 63.2808 176.966 63.2808 163.013C77.2333 163.013 88.5438 174.324 88.5438 188.276Z" fill="#51CAF4" fill-opacity="0.5"/>
<path d="M83.9485 73.1893C97.901 73.1893 109.211 61.8788 109.211 47.9263C95.259 47.9258 83.9485 59.2368 83.9485 73.1893Z" fill="#51CAF4" fill-opacity="0.5"/>
<path d="M83.9485 149.329C97.901 149.329 109.211 138.019 109.211 124.066C95.259 124.066 83.9485 135.377 83.9485 149.329Z" fill="#51CAF4" fill-opacity="0.5"/>
<path d="M77.263 60.263C63.3105 60.263 52 48.9525 52 35C65.9525 35 77.263 46.3105 77.263 60.263Z" fill="#51CAF4" fill-opacity="0.5"/>
<path d="M605.111 215H601C601 206.519 603.113 202.234 605.157 198.088C607.077 194.196 608.889 190.519 608.889 183C608.889 175.481 607.076 171.804 605.157 167.912C603.113 163.767 601 159.481 601 151C601 142.52 603.113 138.234 605.157 134.089C607.076 130.196 608.889 126.52 608.889 119H613C613 127.481 610.887 131.767 608.843 135.912C606.924 139.804 605.111 143.481 605.111 151C605.111 158.52 606.924 162.196 608.843 166.089C610.887 170.234 613 174.519 613 183C613 191.481 610.887 195.766 608.843 199.911C606.924 203.804 605.111 207.48 605.111 215Z" fill="#51CAF4"/>
<path d="M603 145C591.954 145 583 135.598 583 124C594.046 124 603 133.402 603 145Z" fill="#51CAF4"/>
<path d="M608 195C596.954 195 588 186.046 588 175C599.046 175 608 183.954 608 195Z" fill="#51CAF4"/>
<path d="M608 168C619.046 168 628 159.046 628 148C616.954 148 608 156.954 608 168Z" fill="#51CAF4"/>
<path d="M815.111 215H811C811 206.519 813.113 202.234 815.157 198.088C817.077 194.196 818.889 190.519 818.889 183C818.889 175.481 817.076 171.804 815.157 167.912C813.113 163.767 811 159.481 811 151C811 142.52 813.113 138.234 815.157 134.089C817.076 130.196 818.889 126.52 818.889 119H823C823 127.481 820.887 131.767 818.843 135.912C816.924 139.804 815.111 143.481 815.111 151C815.111 158.52 816.924 162.196 818.843 166.089C820.887 170.234 823 174.519 823 183C823 191.481 820.887 195.766 818.843 199.911C816.924 203.804 815.111 207.48 815.111 215Z" fill="#51CAF4" fill-opacity="0.5"/>
<path d="M813 145C801.954 145 793 135.598 793 124C804.046 124 813 133.402 813 145Z" fill="#51CAF4" fill-opacity="0.5"/>
<path d="M818 195C806.954 195 798 186.046 798 175C809.046 175 818 183.954 818 195Z" fill="#51CAF4" fill-opacity="0.5"/>
<path d="M818 168C829.046 168 838 159.046 838 148C826.954 148 818 156.954 818 168Z" fill="#51CAF4" fill-opacity="0.5"/>
<path d="M890.111 217H886C886 208.519 888.113 204.234 890.157 200.088C892.077 196.196 893.889 192.519 893.889 185C893.889 177.481 892.076 173.804 890.157 169.912C888.113 165.767 886 161.481 886 153C886 144.52 888.113 140.234 890.157 136.089C892.076 132.196 893.889 128.52 893.889 121H898C898 129.481 895.887 133.767 893.843 137.912C891.924 141.804 890.111 145.481 890.111 153C890.111 160.52 891.924 164.196 893.843 168.089C895.887 172.234 898 176.519 898 185C898 193.481 895.887 197.766 893.843 201.911C891.924 205.804 890.111 209.48 890.111 217Z" fill="#51CAF4"/>
<path d="M888 147C876.954 147 868 137.598 868 126C879.046 126 888 135.402 888 147Z" fill="#51CAF4"/>
<path d="M893 197C881.954 197 873 188.046 873 177C884.046 177 893 185.954 893 197Z" fill="#51CAF4"/>
<path d="M893 170C904.046 170 913 161.046 913 150C901.954 150 893 158.954 893 170Z" fill="#51CAF4"/>
</svg>