<svg width="2265" height="238" viewBox="0 0 2265 238" fill="none" xmlns="http://www.w3.org/2000/svg">
<path d="M688.843 184.543L673.056 196.822V172.074L691.285 162.131L697.841 147.438L717.307 141.666L715.605 135.924L701.053 140.239L707.8 125.117L729.49 116.909L732.852 92.3702L753.107 78.2474L749.682 73.3349L733.957 84.2983L735.46 73.3339L729.527 72.5209L724.718 107.628L708.442 88.1882L703.85 92.0325L721.764 113.43L706.479 119.213L691.59 101.842L695.333 81.1206L689.44 80.056L686.105 98.5188L669.218 91.5018L666.919 97.0322L686.582 105.202L702.067 123.268L688.545 153.575L680.634 140.667L675.528 143.796L684.764 158.866L670.096 166.867L650.815 155.85L660.2 146.017L655.868 141.882L647.274 150.885L643.045 138.199L658.131 118.264L653.355 114.65L638.436 134.365L617.317 130.405L637.008 102.131L632.094 98.7085L614.386 124.134L611.272 92.9912L625.094 66.411L650.43 61.2308L649.231 55.3637L627.644 59.7769L636.235 34.9588L630.576 33L623.085 54.6404L617.332 38.1484L611.677 40.121L619.843 63.529L608.112 86.0885L594.209 61.1589L588.979 64.0759L605.286 93.3173L606.637 106.828L590.303 101.034L588.301 106.679L607.296 113.416L609.457 135.024L637.422 140.268L641.544 152.633L625.958 149.602L624.815 155.481L644.949 159.395L667.068 172.035V227H673.056V204.408L692.52 189.271L688.843 184.543Z" fill="#80D8B6" fill-opacity="0.7"/>
<path d="M646.892 193.757L637.089 179.692L632.175 183.117L643.29 199.064V206.818L636.248 202.358L633.044 207.418L643.29 213.906V227H649.278V199.542L659.326 191.322L655.533 186.686L646.892 193.757Z" fill="#80D8B6" fill-opacity="0.7"/>
<path d="M570.717 192.065L560.914 178L556 181.425L567.115 197.372V205.126L560.073 200.666L556.869 205.725L567.115 212.214V225.308H573.103V197.849L583.151 189.629L579.358 184.994L570.717 192.065Z" fill="#80D8B6" fill-opacity="0.7"/>
<path d="M474.803 190.568L463.61 176L458 179.547L470.69 196.065V204.096L462.651 199.477L458.993 204.717L470.69 211.438V225H477.528V196.559L489 188.045L484.67 183.244L474.803 190.568Z" fill="#80D8B6" fill-opacity="0.7"/>
<path d="M730.749 195.145L718.777 197.756L710.061 181.569L720.208 166.347L715.226 163.025L706.282 176.441L700.24 169.333L695.677 173.212L704.084 183.102L713.205 200.04L699.524 208.06V227H705.513V211.491L718.314 203.987L732.025 200.996L730.749 195.145Z" fill="#80D8B6" fill-opacity="0.7"/>
<path d="M791.595 188.646L778.42 191.545L768.828 173.58L779.996 156.687L774.512 153L764.67 167.889L758.021 160.001L753 164.305L762.251 175.281L772.288 194.08L757.233 202.98V224H763.824V206.787L777.911 198.46L793 195.14L791.595 188.646Z" fill="#80D8B6" fill-opacity="0.7"/>
<path d="M616.496 201.302L610.001 207.278V171.002L618.934 160.793L614.427 156.849L607.345 164.944L598.734 151.855L602.524 137.958L596.747 136.382L594.167 145.841L587.709 137.623L583 141.323L593.057 154.123L604.012 170.774V193.38L594.771 184.735L590.68 189.108L604.012 201.58V227H610.001V215.415L620.55 205.71L616.496 201.302Z" fill="#80D8B6" fill-opacity="0.7"/>
<path d="M454.329 200.463L448.448 205.936V172.71L456.536 163.359L452.456 159.747L446.043 167.161L438.247 155.173L441.678 142.443L436.447 141L434.111 149.665L428.264 142.137L424 145.526L433.106 157.25L443.026 172.501V193.206L434.658 185.289L430.954 189.294L443.026 200.717V224H448.448V213.389L458 204.5L454.329 200.463Z" fill="#80D8B6" fill-opacity="0.7"/>
<path d="M1144.64 101.688C1159.23 100.158 1170.64 87.7847 1170.64 72.7945H1164.4C1164.4 84.2622 1155.9 93.7772 1144.87 95.3735C1144.69 84.4828 1141.72 78.8274 1138.85 73.3532C1136.55 68.9702 1134.36 64.7798 1133.73 57.5781C1148.02 55.7663 1159.11 43.5397 1159.11 28.7634H1152.87C1152.87 40.15 1144.49 49.6144 1133.57 51.3103C1133.87 42.5317 1136.29 37.9159 1138.85 33.0504C1141.81 27.4056 1144.88 21.5694 1144.88 10H1138.64C1138.64 20.0318 1136.06 24.9473 1133.33 30.1514C1130.52 35.4964 1127.63 41.0176 1127.33 51.4129C1116.03 50.0602 1107.24 40.4216 1107.24 28.7629H1101C1101 43.9125 1112.66 56.3847 1127.47 57.697C1128.15 66.3827 1130.78 71.3902 1133.33 76.2511C1135.97 81.279 1138.46 86.0516 1138.62 95.4139C1127.44 93.9565 1118.77 84.3715 1118.77 72.794H1112.53C1112.53 87.727 1123.86 100.06 1138.37 101.667C1137.64 108.335 1135.53 112.352 1133.33 116.553C1130.38 122.176 1127.33 127.991 1127.3 139.472C1116.01 138.108 1107.24 128.475 1107.24 116.826H1101C1101 132.029 1112.74 144.535 1127.63 145.771C1128.5 153.443 1130.94 158.11 1133.33 162.651C1136.06 167.854 1138.64 172.769 1138.64 182.8C1138.64 183.033 1138.63 183.249 1138.63 183.477C1127.44 182.022 1118.77 172.436 1118.77 160.856H1112.53C1112.53 175.715 1123.74 187.996 1138.15 189.701C1137.28 195.411 1135.35 199.105 1133.33 202.949C1130.36 208.594 1127.3 214.43 1127.3 225.998H1133.54C1133.54 215.967 1136.12 211.052 1138.85 205.848C1141.15 201.468 1143.51 196.97 1144.45 189.768C1159.13 188.325 1170.64 175.91 1170.64 160.856H1164.4C1164.4 172.322 1155.9 181.837 1144.87 183.435C1144.87 183.223 1144.88 183.014 1144.88 182.799C1144.88 171.232 1141.81 165.395 1138.85 159.751C1136.73 155.712 1134.7 151.835 1133.9 145.617C1148.11 143.727 1159.11 131.54 1159.11 116.825H1152.87C1152.87 128.222 1144.47 137.694 1133.54 139.377C1133.58 129.501 1136.14 124.615 1138.85 119.451C1141.32 114.74 1143.87 109.891 1144.64 101.688Z" fill="#9BC9CC" fill-opacity="0.8"/>
<path d="M1190.87 182.233C1190.87 182.022 1190.88 181.813 1190.88 181.598C1190.88 170.03 1187.81 164.194 1184.85 158.55C1182.73 154.511 1180.71 150.635 1179.9 144.416C1194.11 142.526 1205.11 130.339 1205.11 115.624H1198.87C1198.87 127.021 1190.47 136.493 1179.54 138.176C1179.58 128.3 1182.14 123.414 1184.85 118.251C1187.32 113.538 1189.86 108.69 1190.64 100.487C1205.23 98.9561 1216.64 86.583 1216.64 71.5927H1210.4C1210.4 83.0605 1201.9 92.5755 1190.87 94.1718C1190.69 83.2811 1187.72 77.6256 1184.85 72.1514C1182.12 66.9473 1179.54 62.0313 1179.54 52H1173.3C1173.3 63.5694 1176.36 69.4056 1179.33 75.0499C1181.97 80.0778 1184.46 84.8503 1184.62 94.2126C1173.44 92.7552 1164.77 83.1703 1164.77 71.5927H1158.53C1158.53 86.5258 1169.86 98.8586 1184.37 100.466C1183.64 107.134 1181.53 111.15 1179.33 115.352C1176.38 120.974 1173.33 126.79 1173.3 138.27C1162.01 136.906 1153.24 127.273 1153.24 115.624H1147C1147 130.827 1158.74 143.332 1173.63 144.57C1174.5 152.242 1176.94 156.909 1179.33 161.449C1182.06 166.652 1184.64 171.567 1184.64 181.598C1184.64 181.831 1184.63 182.048 1184.63 182.275C1173.44 180.82 1164.77 171.234 1164.77 159.654H1158.53C1158.53 174.513 1169.74 186.795 1184.15 188.5C1183.28 194.209 1181.35 197.903 1179.33 201.748C1176.36 207.392 1173.3 213.228 1173.3 224.796H1179.54C1179.54 214.765 1182.12 209.85 1184.85 204.646C1187.15 200.266 1189.51 195.768 1190.45 188.567C1205.13 187.123 1216.64 174.708 1216.64 159.654H1210.4C1210.4 171.121 1201.9 180.636 1190.87 182.233Z" fill="#83B6B7" fill-opacity="0.5"/>
<path d="M1282.61 196.934C1282.61 196.79 1282.61 196.647 1282.61 196.501C1282.61 188.601 1280.54 184.616 1278.54 180.761C1277.11 178.003 1275.75 175.356 1275.21 171.109C1284.79 169.819 1292.22 161.497 1292.22 151.448H1288.01C1288.01 159.231 1282.34 165.699 1274.96 166.848C1274.99 160.104 1276.71 156.768 1278.54 153.242C1280.21 150.024 1281.93 146.712 1282.45 141.111C1292.3 140.066 1300 131.616 1300 121.38H1295.79C1295.79 129.211 1290.05 135.708 1282.61 136.798C1282.49 129.361 1280.48 125.499 1278.54 121.761C1276.7 118.207 1274.96 114.85 1274.96 108H1270.75C1270.75 115.901 1272.82 119.886 1274.82 123.74C1276.6 127.174 1278.28 130.433 1278.39 136.826C1270.84 135.831 1264.99 129.286 1264.99 121.38H1260.78C1260.78 131.577 1268.43 139.999 1278.22 141.096C1277.73 145.65 1276.31 148.393 1274.82 151.262C1272.83 155.102 1270.77 159.073 1270.75 166.913C1263.13 165.981 1257.21 159.403 1257.21 151.448H1253C1253 161.83 1260.92 170.369 1270.97 171.214C1271.56 176.454 1273.21 179.641 1274.82 182.741C1276.66 186.294 1278.4 189.651 1278.4 196.501C1278.4 196.66 1278.4 196.807 1278.4 196.963C1270.84 195.969 1264.99 189.423 1264.99 181.516H1260.78C1260.78 191.663 1268.35 200.049 1278.07 201.214C1277.48 205.113 1276.18 207.635 1274.82 210.26C1272.82 214.115 1270.75 218.1 1270.75 226H1274.96C1274.96 219.15 1276.7 215.793 1278.54 212.24C1280.1 209.249 1281.69 206.177 1282.32 201.259C1292.23 200.273 1300 191.796 1300 181.515H1295.79C1295.79 189.346 1290.05 195.843 1282.61 196.934Z" fill="#83B6B7" fill-opacity="0.5"/>
<path d="M1361.28 190.008C1361.28 189.839 1361.28 189.672 1361.28 189.501C1361.28 180.262 1358.82 175.601 1356.44 171.094C1354.73 167.868 1353.1 164.772 1352.46 159.806C1363.88 158.297 1372.73 148.564 1372.73 136.812H1367.71C1367.71 145.914 1360.96 153.479 1352.17 154.823C1352.2 146.936 1354.26 143.033 1356.44 138.91C1358.42 135.146 1360.47 131.274 1361.09 124.723C1372.82 123.5 1382 113.619 1382 101.647H1376.98C1376.98 110.806 1370.15 118.405 1361.27 119.68C1361.13 110.982 1358.75 106.465 1356.44 102.093C1354.24 97.9374 1352.16 94.0113 1352.16 86H1347.15C1347.15 95.2396 1349.61 99.9006 1351.99 104.408C1354.12 108.424 1356.12 112.235 1356.25 119.712C1347.26 118.548 1340.29 110.893 1340.29 101.647H1335.27C1335.27 113.573 1344.38 123.423 1356.05 124.706C1355.46 130.032 1353.77 133.239 1352 136.594C1349.62 141.085 1347.17 145.729 1347.15 154.898C1338.07 153.808 1331.01 146.115 1331.01 136.812H1326C1326 148.954 1335.44 158.941 1347.41 159.929C1348.11 166.056 1350.08 169.783 1352 173.409C1354.19 177.565 1356.27 181.49 1356.27 189.501C1356.27 189.687 1356.26 189.86 1356.26 190.041C1347.26 188.879 1340.29 181.224 1340.29 171.976H1335.27C1335.27 183.843 1344.29 193.651 1355.87 195.012C1355.17 199.572 1353.62 202.522 1352 205.593C1349.61 210.1 1347.15 214.761 1347.15 224H1352.16C1352.16 215.989 1354.24 212.063 1356.44 207.908C1358.28 204.409 1360.18 200.817 1360.94 195.066C1372.74 193.913 1382 183.998 1382 171.975H1376.98C1376.99 181.133 1370.15 188.732 1361.28 190.008Z" fill="#6E8CFB"/>
<path d="M1080.28 191.008C1080.28 190.839 1080.28 190.672 1080.28 190.501C1080.28 181.262 1077.82 176.601 1075.44 172.094C1073.73 168.868 1072.1 165.772 1071.46 160.806C1082.88 159.297 1091.73 149.564 1091.73 137.812H1086.71C1086.71 146.914 1079.96 154.479 1071.17 155.823C1071.2 147.936 1073.26 144.033 1075.44 139.91C1077.42 136.146 1079.47 132.274 1080.09 125.723C1091.82 124.5 1101 114.619 1101 102.647H1095.98C1095.98 111.806 1089.15 119.405 1080.27 120.68C1080.13 111.982 1077.75 107.465 1075.44 103.093C1073.24 98.9374 1071.16 95.0113 1071.16 87H1066.15C1066.15 96.2396 1068.61 100.901 1070.99 105.408C1073.12 109.424 1075.12 113.235 1075.25 120.712C1066.26 119.548 1059.29 111.893 1059.29 102.647H1054.27C1054.27 114.573 1063.38 124.423 1075.05 125.706C1074.46 131.032 1072.77 134.239 1071 137.594C1068.62 142.085 1066.17 146.729 1066.15 155.898C1057.07 154.808 1050.01 147.115 1050.01 137.812H1045C1045 149.954 1054.44 159.941 1066.41 160.929C1067.11 167.056 1069.08 170.783 1071 174.409C1073.19 178.565 1075.27 182.49 1075.27 190.501C1075.27 190.687 1075.26 190.86 1075.26 191.041C1066.26 189.879 1059.29 182.224 1059.29 172.976H1054.27C1054.27 184.843 1063.29 194.651 1074.87 196.012C1074.17 200.572 1072.62 203.522 1071 206.593C1068.61 211.1 1066.15 215.761 1066.15 225H1071.16C1071.16 216.989 1073.24 213.063 1075.44 208.908C1077.28 205.409 1079.18 201.817 1079.94 196.066C1091.74 194.913 1101 184.998 1101 172.975H1095.98C1095.99 182.133 1089.15 189.732 1080.28 191.008Z" fill="#83B6B7" fill-opacity="0.5"/>
<path d="M1435.72 198.905C1435.72 198.77 1435.72 198.637 1435.72 198.501C1435.72 191.137 1433.79 187.421 1431.91 183.828C1430.57 181.257 1429.3 178.79 1428.79 174.831C1437.77 173.628 1444.71 165.87 1444.71 156.502H1440.77C1440.77 163.757 1435.47 169.787 1428.56 170.859C1428.58 164.572 1430.2 161.461 1431.91 158.174C1433.48 155.175 1435.08 152.088 1435.57 146.866C1444.79 145.892 1452 138.015 1452 128.472H1448.06C1448.06 135.773 1442.69 141.83 1435.72 142.846C1435.6 135.913 1433.73 132.313 1431.91 128.828C1430.19 125.515 1428.56 122.386 1428.56 116H1424.62C1424.62 123.365 1426.55 127.08 1428.42 130.673C1430.09 133.874 1431.67 136.912 1431.77 142.872C1424.7 141.944 1419.23 135.843 1419.23 128.472H1415.29C1415.29 137.979 1422.44 145.83 1431.61 146.853C1431.15 151.098 1429.82 153.654 1428.42 156.329C1426.56 159.908 1424.63 163.61 1424.62 170.919C1417.49 170.05 1411.94 163.918 1411.94 156.502H1408C1408 166.181 1415.42 174.141 1424.83 174.929C1425.37 179.813 1426.92 182.784 1428.42 185.674C1430.15 188.986 1431.78 192.115 1431.78 198.501C1431.78 198.649 1431.78 198.787 1431.77 198.932C1424.7 198.005 1419.23 191.903 1419.23 184.531H1415.29C1415.29 193.99 1422.37 201.809 1431.47 202.894C1430.92 206.529 1429.7 208.88 1428.42 211.327C1426.55 214.92 1424.62 218.636 1424.62 226H1428.56C1428.56 219.614 1430.19 216.485 1431.91 213.173C1433.37 210.384 1434.86 207.521 1435.45 202.937C1444.73 202.018 1452 194.115 1452 184.531H1448.06C1448.06 191.831 1442.69 197.888 1435.72 198.905Z" fill="#83B6B7" fill-opacity="0.5"/>
<path d="M1552.64 101.688C1567.23 100.158 1578.64 87.7847 1578.64 72.7945H1572.4C1572.4 84.2622 1563.9 93.7772 1552.87 95.3735C1552.69 84.4828 1549.72 78.8274 1546.85 73.3532C1544.55 68.9702 1542.36 64.7798 1541.73 57.5781C1556.02 55.7663 1567.11 43.5397 1567.11 28.7634H1560.87C1560.87 40.15 1552.49 49.6144 1541.57 51.3103C1541.87 42.5317 1544.29 37.9159 1546.85 33.0504C1549.81 27.4056 1552.88 21.5694 1552.88 10H1546.64C1546.64 20.0318 1544.06 24.9473 1541.33 30.1514C1538.52 35.4964 1535.63 41.0176 1535.33 51.4129C1524.03 50.0602 1515.24 40.4216 1515.24 28.7629H1509C1509 43.9125 1520.66 56.3847 1535.47 57.697C1536.15 66.3827 1538.78 71.3902 1541.33 76.2511C1543.97 81.279 1546.46 86.0516 1546.62 95.4139C1535.44 93.9565 1526.77 84.3715 1526.77 72.794H1520.53C1520.53 87.727 1531.86 100.06 1546.37 101.667C1545.64 108.335 1543.53 112.352 1541.33 116.553C1538.38 122.176 1535.33 127.991 1535.3 139.472C1524.01 138.108 1515.24 128.475 1515.24 116.826H1509C1509 132.029 1520.74 144.535 1535.63 145.771C1536.5 153.443 1538.94 158.11 1541.33 162.651C1544.06 167.854 1546.64 172.769 1546.64 182.8C1546.64 183.033 1546.63 183.249 1546.63 183.477C1535.44 182.022 1526.77 172.436 1526.77 160.856H1520.53C1520.53 175.715 1531.74 187.996 1546.15 189.701C1545.28 195.411 1543.35 199.105 1541.33 202.949C1538.36 208.594 1535.3 214.43 1535.3 225.998H1541.54C1541.54 215.967 1544.12 211.052 1546.85 205.848C1549.15 201.468 1551.51 196.97 1552.45 189.768C1567.13 188.325 1578.64 175.91 1578.64 160.856H1572.4C1572.4 172.322 1563.9 181.837 1552.87 183.435C1552.87 183.223 1552.88 183.014 1552.88 182.799C1552.88 171.232 1549.81 165.395 1546.85 159.751C1544.73 155.712 1542.7 151.835 1541.9 145.617C1556.11 143.727 1567.11 131.54 1567.11 116.825H1560.87C1560.87 128.222 1552.47 137.694 1541.54 139.377C1541.58 129.501 1544.14 124.615 1546.85 119.451C1549.32 114.74 1551.87 109.891 1552.64 101.688Z" fill="#9BC9CC" fill-opacity="0.8"/>
<path d="M1513.1 182.387C1513.1 182.175 1513.1 181.966 1513.1 181.751C1513.1 170.169 1510.02 164.326 1507.04 158.675C1504.91 154.632 1502.88 150.751 1502.07 144.525C1516.35 142.633 1527.41 130.432 1527.41 115.699H1521.14C1521.14 127.109 1512.7 136.593 1501.71 138.278C1501.75 128.39 1504.32 123.499 1507.04 118.329C1509.53 113.611 1512.09 108.756 1512.86 100.544C1527.53 99.0114 1539 86.6237 1539 71.6158H1532.73C1532.73 83.0971 1524.18 92.6233 1513.09 94.2215C1512.92 83.3179 1509.93 77.6558 1507.04 72.1751C1504.3 66.9649 1501.7 62.0431 1501.7 52H1495.44C1495.44 63.583 1498.52 69.4261 1501.49 75.077C1504.15 80.1108 1506.65 84.889 1506.82 94.2624C1495.57 92.8033 1486.86 83.207 1486.86 71.6158H1480.59C1480.59 86.5665 1491.97 98.9138 1506.56 100.523C1505.83 107.199 1503.71 111.22 1501.49 115.426C1498.53 121.056 1495.46 126.878 1495.44 138.372C1484.09 137.006 1475.27 127.362 1475.27 115.699H1469C1469 130.92 1480.8 143.44 1495.77 144.679C1496.64 152.36 1499.1 157.033 1501.49 161.578C1504.24 166.787 1506.83 171.708 1506.83 181.751C1506.83 181.984 1506.83 182.201 1506.82 182.429C1495.58 180.972 1486.86 171.374 1486.86 159.781H1480.59C1480.59 174.658 1491.86 186.953 1506.34 188.661C1505.47 194.377 1503.52 198.075 1501.49 201.924C1498.52 207.575 1495.44 213.418 1495.44 225H1501.71C1501.71 214.957 1504.3 210.036 1507.04 204.826C1509.36 200.441 1511.73 195.938 1512.67 188.727C1527.43 187.282 1539 174.853 1539 159.781H1532.73C1532.73 171.261 1524.18 180.787 1513.1 182.387Z" fill="#83B6B7" fill-opacity="0.5"/>
<path d="M916.307 225H911.161C911.161 214.399 913.806 209.042 916.365 203.861C918.769 198.995 921.038 194.4 921.038 185.001C921.038 175.602 918.768 171.006 916.365 166.141C913.806 160.96 911.161 155.603 911.161 145.002C911.161 134.401 913.806 129.044 916.365 123.863C918.768 118.998 921.038 114.402 921.038 105.003C921.038 95.6028 918.768 91.007 916.365 86.1412C913.806 80.9597 911.161 75.6023 911.161 65.001C911.161 54.3998 913.806 49.0424 916.365 43.8608C918.768 38.9951 921.038 34.3993 921.038 25H926.184C926.184 35.6012 923.538 40.9587 920.98 46.1398C918.577 51.0055 916.307 55.6017 916.307 65.001C916.307 74.4003 918.577 78.9966 920.98 83.8623C923.538 89.0438 926.184 94.4013 926.184 105.003C926.184 115.603 923.538 120.961 920.98 126.142C918.577 131.007 916.307 135.603 916.307 145.002C916.307 154.401 918.577 158.997 920.98 163.862C923.538 169.043 926.184 174.4 926.184 185.001C926.184 195.602 923.538 200.959 920.98 206.14C918.577 211.005 916.307 215.601 916.307 225Z" fill="#51CAF4" fill-opacity="0.5"/>
<path d="M913.74 60.7894C899.788 60.7894 888.477 49.4789 888.477 35.5264C902.429 35.5264 913.74 46.8369 913.74 60.7894Z" fill="#51CAF4" fill-opacity="0.5"/>
<path d="M913.74 136.93C899.788 136.93 888.477 125.619 888.477 111.667C902.429 111.667 913.74 122.977 913.74 136.93Z" fill="#51CAF4" fill-opacity="0.5"/>
<path d="M922.161 199.035C908.209 199.035 896.898 187.724 896.898 173.772C910.851 173.772 922.161 185.082 922.161 199.035Z" fill="#51CAF4" fill-opacity="0.5"/>
<path d="M917.951 82.544C931.903 82.544 943.214 71.2335 943.214 57.281C929.262 57.2805 917.951 68.5915 917.951 82.544Z" fill="#51CAF4" fill-opacity="0.5"/>
<path d="M917.951 158.684C931.903 158.684 943.214 147.374 943.214 133.421C929.262 133.421 917.951 144.732 917.951 158.684Z" fill="#51CAF4" fill-opacity="0.5"/>
<path d="M852.756 225H847.609C847.609 214.399 850.255 209.042 852.814 203.861C855.217 198.995 857.486 194.4 857.486 185.001C857.486 175.602 855.216 171.007 852.814 166.141C850.255 160.96 847.609 155.603 847.609 145.002C847.609 134.401 850.255 129.044 852.814 123.863C855.217 118.998 857.486 114.402 857.486 105.002C857.486 95.6027 855.216 91.0069 852.814 86.1412C850.255 80.9597 847.609 75.6022 847.609 65.001H852.756C852.756 74.4007 855.026 78.9965 857.428 83.8623C859.987 89.0438 862.633 94.4012 862.633 105.002C862.633 115.603 859.987 120.961 857.428 126.142C855.026 131.007 852.756 135.603 852.756 145.002C852.756 154.401 855.026 158.996 857.428 163.862C859.987 169.043 862.633 174.4 862.633 185.001C862.633 195.602 859.987 200.959 857.428 206.14C855.026 211.005 852.756 215.601 852.756 225Z" fill="#51CAF4" fill-opacity="0.5"/>
<path d="M850.189 136.93C836.237 136.93 824.926 125.619 824.926 111.667C838.879 111.667 850.189 122.977 850.189 136.93Z" fill="#51CAF4" fill-opacity="0.5"/>
<path d="M858.995 197.631C845.043 197.631 833.732 186.321 833.732 172.368C847.685 172.368 858.995 183.679 858.995 197.631Z" fill="#51CAF4" fill-opacity="0.5"/>
<path d="M854.4 82.544C868.352 82.544 879.663 71.2335 879.663 57.281C865.71 57.2805 854.4 68.5915 854.4 82.544Z" fill="#51CAF4" fill-opacity="0.5"/>
<path d="M854.4 158.684C868.352 158.684 879.663 147.374 879.663 133.421C865.71 133.421 854.4 144.732 854.4 158.684Z" fill="#51CAF4" fill-opacity="0.5"/>
<path d="M978.763 225H973.617C973.617 214.399 976.262 209.042 978.821 203.861C981.224 198.995 983.494 194.4 983.494 185.001C983.494 175.602 981.223 171.006 978.821 166.141C976.262 160.96 973.617 155.603 973.617 145.002C973.617 134.401 976.262 129.044 978.821 123.863C981.224 118.998 983.494 114.402 983.494 105.002H988.64C988.64 115.603 985.994 120.961 983.436 126.142C981.033 131.007 978.763 135.603 978.763 145.002C978.763 154.401 981.033 158.997 983.436 163.862C985.994 169.043 988.64 174.4 988.64 185.001C988.64 195.602 985.994 200.958 983.436 206.14C981.033 211.005 978.763 215.601 978.763 225Z" fill="#51CAF4" fill-opacity="0.5"/>
<path d="M976.196 136.93C962.244 136.93 950.933 125.619 950.933 111.667C964.886 111.667 976.196 122.977 976.196 136.93Z" fill="#51CAF4" fill-opacity="0.5"/>
<path d="M847.715 69.6177C833.762 69.6177 822.452 58.3072 822.452 44.3547C836.404 44.3547 847.715 55.6652 847.715 69.6177Z" fill="#51CAF4" fill-opacity="0.5"/>
<path d="M982.512 199.737C968.56 199.737 957.249 188.426 957.249 174.474C971.202 174.474 982.512 185.784 982.512 199.737Z" fill="#51CAF4" fill-opacity="0.5"/>
<path d="M981.811 166.403C995.763 166.403 1007.07 155.093 1007.07 141.14C993.121 141.14 981.811 152.451 981.811 166.403Z" fill="#51CAF4" fill-opacity="0.5"/>
<path d="M976.196 136.93C962.244 136.93 950.933 125.619 950.933 111.667C964.886 111.667 976.196 122.977 976.196 136.93Z" fill="#51CAF4" fill-opacity="0.5"/>
<path d="M982.512 199.737C968.56 199.737 957.249 188.426 957.249 174.474C971.202 174.474 982.512 185.784 982.512 199.737Z" fill="#51CAF4" fill-opacity="0.5"/>
<path d="M981.811 166.403C995.763 166.403 1007.07 155.093 1007.07 141.14C993.121 141.14 981.811 152.451 981.811 166.403Z" fill="#51CAF4" fill-opacity="0.5"/>
<path d="M506.304 225.645H501.158C501.158 215.044 503.804 209.687 506.362 204.506C508.765 199.641 511.035 195.045 511.035 185.646C511.035 176.247 508.765 171.652 506.362 166.786C503.804 161.605 501.158 156.248 501.158 145.647C501.158 135.047 503.804 129.689 506.362 124.508C508.765 119.643 511.035 115.047 511.035 105.648C511.035 96.248 508.765 91.6522 506.362 86.7865C503.804 81.6049 501.158 76.2475 501.158 65.6462H506.304C506.304 75.046 508.574 79.6418 510.977 84.5075C513.536 89.6891 516.181 95.0465 516.181 105.648C516.181 116.248 513.536 121.606 510.977 126.787C508.574 131.652 506.304 136.248 506.304 145.647C506.304 155.046 508.574 159.642 510.977 164.507C513.536 169.688 516.181 175.045 516.181 185.646C516.181 196.247 513.536 201.604 510.977 206.785C508.574 211.65 506.304 216.246 506.304 225.645Z" fill="#51CAF4" fill-opacity="0.5"/>
<path d="M503.738 137.575C489.785 137.575 478.475 126.265 478.475 112.312C492.427 112.312 503.738 123.623 503.738 137.575Z" fill="#51CAF4" fill-opacity="0.5"/>
<path d="M512.544 198.276C498.591 198.276 487.281 186.966 487.281 173.013C501.233 173.013 512.544 184.324 512.544 198.276Z" fill="#51CAF4" fill-opacity="0.5"/>
<path d="M507.948 83.1893C521.901 83.1893 533.211 71.8788 533.211 57.9263C519.259 57.9258 507.948 69.2368 507.948 83.1893Z" fill="#51CAF4" fill-opacity="0.5"/>
<path d="M507.948 159.329C521.901 159.329 533.211 148.019 533.211 134.066C519.259 134.066 507.948 145.377 507.948 159.329Z" fill="#51CAF4" fill-opacity="0.5"/>
<path d="M501.263 70.263C487.311 70.263 476 58.9525 476 45C489.952 45 501.263 56.3105 501.263 70.263Z" fill="#51CAF4" fill-opacity="0.5"/>
<path d="M1029.11 225H1025C1025 216.519 1027.11 212.234 1029.16 208.088C1031.08 204.196 1032.89 200.519 1032.89 193C1032.89 185.481 1031.08 181.804 1029.16 177.912C1027.11 173.767 1025 169.481 1025 161C1025 152.52 1027.11 148.234 1029.16 144.089C1031.08 140.196 1032.89 136.52 1032.89 129H1037C1037 137.481 1034.89 141.767 1032.84 145.912C1030.92 149.804 1029.11 153.481 1029.11 161C1029.11 168.52 1030.92 172.196 1032.84 176.089C1034.89 180.234 1037 184.519 1037 193C1037 201.481 1034.89 205.766 1032.84 209.911C1030.92 213.804 1029.11 217.48 1029.11 225Z" fill="#51CAF4" fill-opacity="0.5"/>
<path d="M1027 155C1015.95 155 1007 145.598 1007 134C1018.05 134 1027 143.402 1027 155Z" fill="#51CAF4" fill-opacity="0.5"/>
<path d="M1032 205C1020.95 205 1012 196.046 1012 185C1023.05 185 1032 193.954 1032 205Z" fill="#51CAF4" fill-opacity="0.5"/>
<path d="M1032 178C1043.05 178 1052 169.046 1052 158C1040.95 158 1032 166.954 1032 178Z" fill="#51CAF4" fill-opacity="0.5"/>
<path d="M1239.11 225H1235C1235 216.519 1237.11 212.234 1239.16 208.088C1241.08 204.196 1242.89 200.519 1242.89 193C1242.89 185.481 1241.08 181.804 1239.16 177.912C1237.11 173.767 1235 169.481 1235 161C1235 152.52 1237.11 148.234 1239.16 144.089C1241.08 140.196 1242.89 136.52 1242.89 129H1247C1247 137.481 1244.89 141.767 1242.84 145.912C1240.92 149.804 1239.11 153.481 1239.11 161C1239.11 168.52 1240.92 172.196 1242.84 176.089C1244.89 180.234 1247 184.519 1247 193C1247 201.481 1244.89 205.766 1242.84 209.911C1240.92 213.804 1239.11 217.48 1239.11 225Z" fill="#51CAF4" fill-opacity="0.5"/>
<path d="M1237 155C1225.95 155 1217 145.598 1217 134C1228.05 134 1237 143.402 1237 155Z" fill="#51CAF4" fill-opacity="0.5"/>
<path d="M1242 205C1230.95 205 1222 196.046 1222 185C1233.05 185 1242 193.954 1242 205Z" fill="#51CAF4" fill-opacity="0.5"/>
<path d="M1242 178C1253.05 178 1262 169.046 1262 158C1250.95 158 1242 166.954 1242 178Z" fill="#51CAF4" fill-opacity="0.5"/>
<path d="M1314.11 227H1310C1310 218.519 1312.11 214.234 1314.16 210.088C1316.08 206.196 1317.89 202.519 1317.89 195C1317.89 187.481 1316.08 183.804 1314.16 179.912C1312.11 175.767 1310 171.481 1310 163C1310 154.52 1312.11 150.234 1314.16 146.089C1316.08 142.196 1317.89 138.52 1317.89 131H1322C1322 139.481 1319.89 143.767 1317.84 147.912C1315.92 151.804 1314.11 155.481 1314.11 163C1314.11 170.52 1315.92 174.196 1317.84 178.089C1319.89 182.234 1322 186.519 1322 195C1322 203.481 1319.89 207.766 1317.84 211.911C1315.92 215.804 1314.11 219.48 1314.11 227Z" fill="#51CAF4" fill-opacity="0.5"/>
<path d="M1312 157C1300.95 157 1292 147.598 1292 136C1303.05 136 1312 145.402 1312 157Z" fill="#51CAF4" fill-opacity="0.5"/>
<path d="M1317 207C1305.95 207 1297 198.046 1297 187C1308.05 187 1317 195.954 1317 207Z" fill="#51CAF4" fill-opacity="0.5"/>
<path d="M1317 180C1328.05 180 1337 171.046 1337 160C1325.95 160 1317 168.954 1317 180Z" fill="#51CAF4" fill-opacity="0.5"/>
<path d="M43.6384 104.688C58.2298 103.158 69.6408 90.7847 69.6408 75.7945H63.4042C63.4042 87.2622 54.8998 96.7772 43.8676 98.3735C43.6915 87.4828 40.7231 81.8274 37.8496 76.3532C35.5491 71.9702 33.362 67.7798 32.7267 60.5781C47.0189 58.7663 58.1098 46.5397 58.1098 31.7634H51.8732C51.8732 43.15 43.4887 52.6144 32.57 54.3103C32.8743 45.5317 35.2948 40.9159 37.8491 36.0504C40.8124 30.4056 43.8768 24.5694 43.8768 13H37.6402C37.6402 23.0318 35.0594 27.9473 32.3279 33.1514C29.5224 38.4964 26.6275 44.0176 26.3282 54.4129C15.028 53.0602 6.2366 43.4216 6.2366 31.7629H0C0 46.9125 11.6567 59.3847 26.4712 60.697C27.1509 69.3827 29.7757 74.3902 32.3274 79.2511C34.9665 84.279 37.4574 89.0516 37.6239 98.4139C26.437 96.9565 17.7672 87.3715 17.7672 75.794H11.5305C11.5305 90.727 22.8563 103.06 37.3681 104.667C36.6378 111.335 34.5334 115.352 32.3274 119.553C29.3758 125.176 26.3252 130.991 26.3017 142.472C15.0137 141.108 6.23609 131.475 6.23609 119.826H0C0 135.029 11.7404 147.535 26.63 148.771C27.4966 156.443 29.9442 161.11 32.3274 165.651C35.0599 170.854 37.6397 175.769 37.6397 185.8C37.6397 186.033 37.6316 186.249 37.6285 186.477C26.4391 185.022 17.7666 175.436 17.7666 163.856H11.53C11.53 178.715 22.744 190.996 37.1515 192.701C36.2783 198.411 34.346 202.105 32.3269 205.949C29.3641 211.594 26.3002 217.43 26.3002 228.998H32.5368C32.5368 218.967 35.1171 214.052 37.8491 208.848C40.1486 204.468 42.5078 199.97 43.4494 192.768C58.1307 191.325 69.6398 178.91 69.6398 163.856H63.4032C63.4032 175.322 54.9008 184.837 43.8702 186.435C43.8722 186.223 43.8753 186.014 43.8753 185.799C43.8753 174.232 40.8114 168.395 37.8486 162.751C35.7278 158.712 33.7046 154.835 32.9024 148.617C47.1098 146.727 58.1087 134.54 58.1087 119.825H51.8721C51.8721 131.222 43.4729 140.694 32.5393 142.377C32.5786 132.501 35.137 127.615 37.8481 122.451C40.3232 117.74 42.8658 112.891 43.6384 104.688Z" fill="#67C6E3"/>
<path d="M1862.86 231H1857.71C1857.71 220.399 1860.35 215.042 1862.91 209.861C1865.32 204.995 1867.59 200.4 1867.59 191.001C1867.59 181.602 1865.32 177.006 1862.91 172.141C1860.35 166.96 1857.71 161.603 1857.71 151.002C1857.71 140.401 1860.35 135.044 1862.91 129.863C1865.32 124.998 1867.59 120.402 1867.59 111.003C1867.59 101.603 1865.32 97.007 1862.91 92.1412C1860.35 86.9597 1857.71 81.6023 1857.71 71.001C1857.71 60.3998 1860.35 55.0424 1862.91 49.8608C1865.32 44.9951 1867.59 40.3993 1867.59 31H1872.73C1872.73 41.6012 1870.09 46.9587 1867.53 52.1398C1865.13 57.0055 1862.86 61.6017 1862.86 71.001C1862.86 80.4003 1865.13 84.9966 1867.53 89.8623C1870.09 95.0438 1872.73 100.401 1872.73 111.003C1872.73 121.603 1870.09 126.961 1867.53 132.142C1865.13 137.007 1862.86 141.603 1862.86 151.002C1862.86 160.401 1865.13 164.997 1867.53 169.862C1870.09 175.043 1872.73 180.4 1872.73 191.001C1872.73 201.602 1870.09 206.959 1867.53 212.14C1865.13 217.005 1862.86 221.601 1862.86 231Z" fill="#51CAF4" fill-opacity="0.5"/>
<path d="M1860.29 66.7894C1846.34 66.7894 1835.03 55.4789 1835.03 41.5264C1848.98 41.5264 1860.29 52.8369 1860.29 66.7894Z" fill="#51CAF4" fill-opacity="0.5"/>
<path d="M1860.29 142.93C1846.34 142.93 1835.03 131.619 1835.03 117.667C1848.98 117.667 1860.29 128.977 1860.29 142.93Z" fill="#51CAF4" fill-opacity="0.5"/>
<path d="M1868.71 205.035C1854.76 205.035 1843.45 193.724 1843.45 179.772C1857.4 179.772 1868.71 191.082 1868.71 205.035Z" fill="#51CAF4" fill-opacity="0.5"/>
<path d="M1864.5 88.544C1878.45 88.544 1889.76 77.2335 1889.76 63.281C1875.81 63.2805 1864.5 74.5915 1864.5 88.544Z" fill="#51CAF4" fill-opacity="0.5"/>
<path d="M1864.5 164.684C1878.45 164.684 1889.76 153.374 1889.76 139.421C1875.81 139.421 1864.5 150.732 1864.5 164.684Z" fill="#51CAF4" fill-opacity="0.5"/>
<path d="M1799.3 231H1794.16C1794.16 220.399 1796.8 215.042 1799.36 209.861C1801.77 204.995 1804.03 200.4 1804.03 191.001C1804.03 181.602 1801.76 177.007 1799.36 172.141C1796.8 166.96 1794.16 161.603 1794.16 151.002C1794.16 140.401 1796.8 135.044 1799.36 129.863C1801.77 124.998 1804.03 120.402 1804.03 111.002C1804.03 101.603 1801.76 97.0069 1799.36 92.1412C1796.8 86.9597 1794.16 81.6022 1794.16 71.001H1799.3C1799.3 80.4007 1801.57 84.9965 1803.98 89.8623C1806.54 95.0438 1809.18 100.401 1809.18 111.002C1809.18 121.603 1806.54 126.961 1803.98 132.142C1801.57 137.007 1799.3 141.603 1799.3 151.002C1799.3 160.401 1801.57 164.996 1803.98 169.862C1806.54 175.043 1809.18 180.4 1809.18 191.001C1809.18 201.602 1806.54 206.959 1803.98 212.14C1801.57 217.005 1799.3 221.601 1799.3 231Z" fill="#51CAF4" fill-opacity="0.5"/>
<path d="M1796.74 142.93C1782.79 142.93 1771.47 131.619 1771.47 117.667C1785.43 117.667 1796.74 128.977 1796.74 142.93Z" fill="#51CAF4" fill-opacity="0.5"/>
<path d="M1805.54 203.631C1791.59 203.631 1780.28 192.321 1780.28 178.368C1794.23 178.368 1805.54 189.679 1805.54 203.631Z" fill="#51CAF4" fill-opacity="0.5"/>
<path d="M1800.95 88.544C1814.9 88.544 1826.21 77.2335 1826.21 63.281C1812.26 63.2805 1800.95 74.5915 1800.95 88.544Z" fill="#51CAF4" fill-opacity="0.5"/>
<path d="M1800.95 164.684C1814.9 164.684 1826.21 153.374 1826.21 139.421C1812.26 139.421 1800.95 150.732 1800.95 164.684Z" fill="#51CAF4" fill-opacity="0.5"/>
<path d="M1925.31 231H1920.17C1920.17 220.399 1922.81 215.042 1925.37 209.861C1927.77 204.995 1930.04 200.4 1930.04 191.001C1930.04 181.602 1927.77 177.006 1925.37 172.141C1922.81 166.96 1920.17 161.603 1920.17 151.002C1920.17 140.401 1922.81 135.044 1925.37 129.863C1927.77 124.998 1930.04 120.402 1930.04 111.002H1935.19C1935.19 121.603 1932.54 126.961 1929.98 132.142C1927.58 137.007 1925.31 141.603 1925.31 151.002C1925.31 160.401 1927.58 164.997 1929.98 169.862C1932.54 175.043 1935.19 180.4 1935.19 191.001C1935.19 201.602 1932.54 206.958 1929.98 212.14C1927.58 217.005 1925.31 221.601 1925.31 231Z" fill="#51CAF4" fill-opacity="0.5"/>
<path d="M1922.74 142.93C1908.79 142.93 1897.48 131.619 1897.48 117.667C1911.43 117.667 1922.74 128.977 1922.74 142.93Z" fill="#51CAF4" fill-opacity="0.5"/>
<path d="M1794.26 75.6177C1780.31 75.6177 1769 64.3072 1769 50.3547C1782.95 50.3547 1794.26 61.6652 1794.26 75.6177Z" fill="#51CAF4" fill-opacity="0.5"/>
<path d="M1929.06 205.737C1915.11 205.737 1903.8 194.426 1903.8 180.474C1917.75 180.474 1929.06 191.784 1929.06 205.737Z" fill="#51CAF4" fill-opacity="0.5"/>
<path d="M1928.36 172.403C1942.31 172.403 1953.62 161.093 1953.62 147.14C1939.67 147.14 1928.36 158.451 1928.36 172.403Z" fill="#51CAF4" fill-opacity="0.5"/>
<path d="M1922.74 142.93C1908.79 142.93 1897.48 131.619 1897.48 117.667C1911.43 117.667 1922.74 128.977 1922.74 142.93Z" fill="#51CAF4" fill-opacity="0.5"/>
<path d="M1929.06 205.737C1915.11 205.737 1903.8 194.426 1903.8 180.474C1917.75 180.474 1929.06 191.784 1929.06 205.737Z" fill="#51CAF4" fill-opacity="0.5"/>
<path d="M1928.36 172.403C1942.31 172.403 1953.62 161.093 1953.62 147.14C1939.67 147.14 1928.36 158.451 1928.36 172.403Z" fill="#51CAF4" fill-opacity="0.5"/>
<path d="M1413.64 104.688C1428.23 103.158 1439.64 90.7847 1439.64 75.7945H1433.4C1433.4 87.2622 1424.9 96.7772 1413.87 98.3735C1413.69 87.4828 1410.72 81.8274 1407.85 76.3532C1405.55 71.9702 1403.36 67.7798 1402.73 60.5781C1417.02 58.7663 1428.11 46.5397 1428.11 31.7634H1421.87C1421.87 43.15 1413.49 52.6144 1402.57 54.3103C1402.87 45.5317 1405.29 40.9159 1407.85 36.0504C1410.81 30.4056 1413.88 24.5694 1413.88 13H1407.64C1407.64 23.0318 1405.06 27.9473 1402.33 33.1514C1399.52 38.4964 1396.63 44.0176 1396.33 54.4129C1385.03 53.0602 1376.24 43.4216 1376.24 31.7629H1370C1370 46.9125 1381.66 59.3847 1396.47 60.697C1397.15 69.3827 1399.78 74.3902 1402.33 79.2511C1404.97 84.279 1407.46 89.0516 1407.62 98.4139C1396.44 96.9565 1387.77 87.3715 1387.77 75.794H1381.53C1381.53 90.727 1392.86 103.06 1407.37 104.667C1406.64 111.335 1404.53 115.352 1402.33 119.553C1399.38 125.176 1396.33 130.991 1396.3 142.472C1385.01 141.108 1376.24 131.475 1376.24 119.826H1370C1370 135.029 1381.74 147.535 1396.63 148.771C1397.5 156.443 1399.94 161.11 1402.33 165.651C1405.06 170.854 1407.64 175.769 1407.64 185.8C1407.64 186.033 1407.63 186.249 1407.63 186.477C1396.44 185.022 1387.77 175.436 1387.77 163.856H1381.53C1381.53 178.715 1392.74 190.996 1407.15 192.701C1406.28 198.411 1404.35 202.105 1402.33 205.949C1399.36 211.594 1396.3 217.43 1396.3 228.998H1402.54C1402.54 218.967 1405.12 214.052 1407.85 208.848C1410.15 204.468 1412.51 199.97 1413.45 192.768C1428.13 191.325 1439.64 178.91 1439.64 163.856H1433.4C1433.4 175.322 1424.9 184.837 1413.87 186.435C1413.87 186.223 1413.88 186.014 1413.88 185.799C1413.88 174.232 1410.81 168.395 1407.85 162.751C1405.73 158.712 1403.7 154.835 1402.9 148.617C1417.11 146.727 1428.11 134.54 1428.11 119.825H1421.87C1421.87 131.222 1413.47 140.694 1402.54 142.377C1402.58 132.501 1405.14 127.615 1407.85 122.451C1410.32 117.74 1412.87 112.891 1413.64 104.688Z" fill="#9BC9CC" fill-opacity="0.8"/>
<path d="M356.329 203.463L350.448 208.936V175.71L358.536 166.359L354.456 162.747L348.043 170.161L340.247 158.173L343.678 145.443L338.447 144L336.111 152.665L330.264 145.137L326 148.526L335.106 160.25L345.026 175.501V196.206L336.658 188.289L332.954 192.294L345.026 203.717V227H350.448V216.389L360 207.5L356.329 203.463Z" fill="#80D8B6" fill-opacity="0.7"/>
<path d="M290.319 200.209L297.238 206.671V167.441L287.722 156.4L292.523 152.135L300.067 160.889L309.239 146.734L305.202 131.704L311.356 130L314.104 140.23L320.983 131.343L326 135.344L315.286 149.186L303.617 167.194V191.641L313.461 182.293L317.819 187.022L303.617 200.51V228H297.238V215.472L286 204.975L290.319 200.209Z" fill="#80D8B6" fill-opacity="0.7"/>
<path opacity="0.72" d="M54.3189 199.209L61.2376 205.671V166.441L51.722 155.4L56.5227 151.135L64.0671 159.889L73.2393 145.734L69.2021 130.704L75.3563 129L78.1043 139.23L84.9833 130.343L90 134.344L79.2865 148.186L67.617 166.194V190.641L77.461 181.293L81.8191 186.022L67.617 199.51V227H61.2376V214.472L50 203.975L54.3189 199.209Z" fill="#67C6E3"/>
<path d="M1704.84 188.543L1689.06 200.822V176.074L1707.29 166.131L1713.84 151.438L1733.31 145.666L1731.6 139.924L1717.05 144.239L1723.8 129.117L1745.49 120.909L1748.85 96.3702L1769.11 82.2474L1765.68 77.3349L1749.96 88.2983L1751.46 77.3339L1745.53 76.5209L1740.72 111.628L1724.44 92.1882L1719.85 96.0325L1737.76 117.43L1722.48 123.213L1707.59 105.842L1711.33 85.1206L1705.44 84.056L1702.1 102.519L1685.22 95.5018L1682.92 101.032L1702.58 109.202L1718.07 127.268L1704.54 157.575L1696.63 144.667L1691.53 147.796L1700.76 162.866L1686.1 170.867L1666.81 159.85L1676.2 150.017L1671.87 145.882L1663.27 154.885L1659.04 142.199L1674.13 122.264L1669.35 118.65L1654.44 138.365L1633.32 134.405L1653.01 106.131L1648.09 102.709L1630.39 128.134L1627.27 96.9912L1641.09 70.411L1666.43 65.2308L1665.23 59.3637L1643.64 63.7769L1652.23 38.9588L1646.58 37L1639.08 58.6404L1633.33 42.1484L1627.68 44.121L1635.84 67.529L1624.11 90.0885L1610.21 65.1589L1604.98 68.0759L1621.29 97.3173L1622.64 110.828L1606.3 105.034L1604.3 110.679L1623.3 117.416L1625.46 139.024L1653.42 144.268L1657.54 156.633L1641.96 153.602L1640.82 159.481L1660.95 163.395L1683.07 176.035V231H1689.06V208.408L1708.52 193.271L1704.84 188.543Z" fill="#80D8B6" fill-opacity="0.7"/>
<path d="M2164.26 194.543L2180.05 206.822V182.074L2161.82 172.131L2155.27 157.438L2135.8 151.666L2137.5 145.924L2152.05 150.239L2145.31 135.117L2123.62 126.909L2120.26 102.37L2100 88.2474L2103.43 83.3349L2119.15 94.2983L2117.65 83.3339L2123.58 82.5209L2128.39 117.628L2144.66 98.1882L2149.26 102.033L2131.34 123.43L2146.63 129.213L2161.52 111.842L2157.77 91.1206L2163.67 90.056L2167 108.519L2183.89 101.502L2186.19 107.032L2166.53 115.202L2151.04 133.268L2164.56 163.575L2172.47 150.667L2177.58 153.796L2168.34 168.866L2183.01 176.867L2202.29 165.85L2192.91 156.017L2197.24 151.882L2205.83 160.885L2210.06 148.199L2194.98 128.264L2199.75 124.65L2214.67 144.365L2235.79 140.405L2216.1 112.131L2221.01 108.709L2238.72 134.134L2241.84 102.991L2228.01 76.411L2202.68 71.2308L2203.88 65.3637L2225.46 69.7769L2216.87 44.9588L2222.53 43L2230.02 64.6404L2235.78 48.1484L2241.43 50.121L2233.26 73.529L2245 96.0885L2258.9 71.1589L2264.13 74.0759L2247.82 103.317L2246.47 116.828L2262.8 111.034L2264.81 116.679L2245.81 123.416L2243.65 145.024L2215.68 150.268L2211.56 162.633L2227.15 159.602L2228.29 165.481L2208.16 169.395L2186.04 182.035V237H2180.05V214.408L2160.59 199.271L2164.26 194.543Z" fill="#80D8B6" fill-opacity="0.85"/>
<path d="M1662.89 197.757L1653.09 183.692L1648.18 187.117L1659.29 203.064V210.818L1652.25 206.358L1649.04 211.418L1659.29 217.906V231H1665.28V203.542L1675.33 195.322L1671.53 190.686L1662.89 197.757Z" fill="#80D8B6" fill-opacity="0.7"/>
<path d="M1586.72 196.065L1576.91 182L1572 185.425L1583.11 201.372V209.126L1576.07 204.666L1572.87 209.725L1583.11 216.214V229.308H1589.1V201.849L1599.15 193.629L1595.36 188.994L1586.72 196.065Z" fill="#80D8B6" fill-opacity="0.7"/>
<path d="M1490.8 194.568L1479.61 180L1474 183.547L1486.69 200.065V208.096L1478.65 203.477L1474.99 208.717L1486.69 215.438V229H1493.53V200.559L1505 192.045L1500.67 187.244L1490.8 194.568Z" fill="#67C6E3"/>
<path d="M1746.75 199.145L1734.78 201.756L1726.06 185.569L1736.21 170.347L1731.23 167.025L1722.28 180.441L1716.24 173.333L1711.68 177.212L1720.08 187.102L1729.2 204.04L1715.52 212.06V231H1721.51V215.491L1734.31 207.987L1748.03 204.996L1746.75 199.145Z" fill="#80D8B6" fill-opacity="0.7"/>
<path d="M2093.4 198.646L2106.58 201.545L2116.17 183.58L2105 166.687L2110.49 163L2120.33 177.889L2126.98 170.001L2132 174.305L2122.75 185.281L2112.71 204.08L2127.77 212.98V234H2121.18V216.787L2107.09 208.46L2092 205.14L2093.4 198.646Z" fill="#80D8B6"/>
<path d="M1632.5 205.302L1626 211.278V175.002L1634.93 164.793L1630.43 160.849L1623.34 168.944L1614.73 155.855L1618.52 141.958L1612.75 140.382L1610.17 149.841L1603.71 141.623L1599 145.323L1609.06 158.123L1620.01 174.774V197.38L1610.77 188.735L1606.68 193.108L1620.01 205.58V231H1626V219.415L1636.55 209.71L1632.5 205.302Z" fill="#80D8B6" fill-opacity="0.7"/>
<path d="M1898.5 207.921L1892 213.896V177.621L1900.93 167.411L1896.43 163.468L1889.34 171.562L1880.73 158.473L1884.52 144.576L1878.75 143L1876.17 152.46L1869.71 144.242L1865 147.941L1875.06 160.741L1886.01 177.392V199.998L1876.77 191.354L1872.68 195.727L1886.01 208.199V233.618H1892V222.034L1902.55 212.328L1898.5 207.921Z" fill="#80D8B6"/>
<path d="M1470.33 204.463L1464.45 209.936V176.71L1472.54 167.359L1468.46 163.747L1462.04 171.161L1454.25 159.173L1457.68 146.443L1452.45 145L1450.11 153.665L1444.26 146.137L1440 149.526L1449.11 161.25L1459.03 176.501V197.206L1450.66 189.289L1446.95 193.294L1459.03 204.717V228H1464.45V217.389L1474 208.5L1470.33 204.463Z" fill="#80D8B6" fill-opacity="0.7"/>
<path d="M809.305 224.794H804.158C804.158 213.743 806.804 208.159 809.363 202.757C811.766 197.685 814.035 192.894 814.035 183.096C814.035 173.298 811.765 168.508 809.363 163.436C806.804 158.034 804.158 152.45 804.158 141.399C804.158 130.348 806.804 124.763 809.363 119.362C811.766 114.29 814.035 109.499 814.035 99.7004C814.035 89.9015 811.765 85.1105 809.363 80.0381C806.804 74.6365 804.158 69.0515 804.158 58H809.305C809.305 67.799 811.575 72.59 813.977 77.6624C816.536 83.064 819.182 88.649 819.182 99.7004C819.182 110.751 816.536 116.336 813.977 121.738C811.574 126.809 809.305 131.6 809.305 141.399C809.305 151.197 811.575 155.987 813.977 161.06C816.536 166.461 819.182 172.045 819.182 183.096C819.182 194.147 816.536 199.732 813.977 205.133C811.575 210.205 809.305 214.996 809.305 224.794Z" fill="#51CAF4" fill-opacity="0.8"/>
<path d="M806.738 132.984C792.785 132.984 781.475 121.193 781.475 106.648C795.427 106.648 806.738 118.439 806.738 132.984Z" fill="#51CAF4" fill-opacity="0.8"/>
<path d="M815.544 196.263C801.591 196.263 790.281 184.472 790.281 169.927C804.233 169.927 815.544 181.718 815.544 196.263Z" fill="#51CAF4" fill-opacity="0.8"/>
<path d="M812.948 193.214C826.901 193.214 838.211 181.424 838.211 166.878C824.259 166.878 812.948 178.669 812.948 193.214Z" fill="#51CAF4" fill-opacity="0.8"/>
<path d="M810.948 155.662C824.901 155.662 836.211 143.871 836.211 129.326C822.259 129.326 810.948 141.117 810.948 155.662Z" fill="#51CAF4" fill-opacity="0.8"/>
<path d="M205.83 232.794H200.684C200.684 221.743 203.329 216.159 205.888 210.757C208.291 205.685 210.561 200.894 210.561 191.096C210.561 181.298 208.291 176.508 205.888 171.436C203.329 166.034 200.684 160.45 200.684 149.399C200.684 138.348 203.329 132.763 205.888 127.362C208.291 122.29 210.561 117.499 210.561 107.7C210.561 97.9015 208.291 93.1105 205.888 88.0381C203.329 82.6365 200.684 77.0515 200.684 66H205.83C205.83 75.799 208.1 80.59 210.503 85.6624C213.061 91.064 215.707 96.649 215.707 107.7C215.707 118.751 213.061 124.336 210.503 129.738C208.1 134.809 205.83 139.6 205.83 149.399C205.83 159.197 208.1 163.987 210.503 169.06C213.061 174.461 215.707 180.045 215.707 191.096C215.707 202.147 213.061 207.732 210.503 213.133C208.1 218.205 205.83 222.996 205.83 232.794Z" fill="#51CAF4" fill-opacity="0.65"/>
<path d="M203.263 140.984C189.31 140.984 178 129.193 178 114.648C191.952 114.648 203.263 126.439 203.263 140.984Z" fill="#51CAF4" fill-opacity="0.65"/>
<path d="M212.069 204.263C198.117 204.263 186.806 192.472 186.806 177.927C200.759 177.927 212.069 189.718 212.069 204.263Z" fill="#51CAF4" fill-opacity="0.65"/>
<path d="M209.474 201.214C223.426 201.214 234.737 189.424 234.737 174.878C220.784 174.878 209.474 186.669 209.474 201.214Z" fill="#51CAF4" fill-opacity="0.65"/>
<path d="M207.474 163.662C221.426 163.662 232.737 151.871 232.737 137.326C218.784 137.326 207.474 149.117 207.474 163.662Z" fill="#51CAF4" fill-opacity="0.65"/>
<path d="M946.111 229H942C942 220.519 944.113 216.234 946.157 212.088C948.077 208.196 949.889 204.519 949.889 197C949.889 189.481 948.076 185.804 946.157 181.912C944.113 177.767 942 173.481 942 165C942 156.52 944.113 152.234 946.157 148.089C948.076 144.196 949.889 140.52 949.889 133H954C954 141.481 951.887 145.767 949.843 149.912C947.924 153.804 946.111 157.481 946.111 165C946.111 172.52 947.924 176.196 949.843 180.089C951.887 184.234 954 188.519 954 197C954 205.481 951.887 209.766 949.843 213.911C947.924 217.804 946.111 221.48 946.111 229Z" fill="#51CAF4" fill-opacity="0.8"/>
<path d="M944 159C932.954 159 924 149.598 924 138C935.046 138 944 147.402 944 159Z" fill="#51CAF4" fill-opacity="0.8"/>
<path d="M949 209C937.954 209 929 200.046 929 189C940.046 189 949 197.954 949 209Z" fill="#51CAF4" fill-opacity="0.8"/>
<path d="M949 182C960.046 182 969 173.046 969 162C957.954 162 949 170.954 949 182Z" fill="#51CAF4" fill-opacity="0.8"/>
<path d="M1831.3 231.318H1826.16C1826.16 220.267 1828.8 214.682 1831.36 209.281C1833.77 204.209 1836.03 199.418 1836.03 189.62C1836.03 179.822 1833.76 175.031 1831.36 169.959C1828.8 164.558 1826.16 158.973 1826.16 147.922C1826.16 136.871 1828.8 131.286 1831.36 125.885C1833.77 120.813 1836.03 116.022 1836.03 106.224C1836.03 96.4247 1833.76 91.6337 1831.36 86.5613C1828.8 81.1597 1826.16 75.5747 1826.16 64.5232H1831.3C1831.3 74.3222 1833.57 79.1132 1835.98 84.1855C1838.54 89.5872 1841.18 95.1722 1841.18 106.224C1841.18 117.275 1838.54 122.86 1835.98 128.261C1833.57 133.333 1831.3 138.124 1831.3 147.922C1831.3 157.72 1833.57 162.511 1835.98 167.583C1838.54 172.984 1841.18 178.569 1841.18 189.62C1841.18 200.671 1838.54 206.255 1835.98 211.656C1833.57 216.728 1831.3 221.519 1831.3 231.318Z" fill="#51CAF4"/>
<path d="M1828.74 139.507C1814.79 139.507 1803.47 127.716 1803.47 113.171C1817.43 113.171 1828.74 124.962 1828.74 139.507Z" fill="#51CAF4"/>
<path d="M1837.54 202.786C1823.59 202.786 1812.28 190.996 1812.28 176.45C1826.23 176.45 1837.54 188.241 1837.54 202.786Z" fill="#51CAF4"/>
<path d="M1832.95 82.8113C1846.9 82.8113 1858.21 71.0204 1858.21 56.4753C1844.26 56.4749 1832.95 68.2662 1832.95 82.8113Z" fill="#51CAF4"/>
<path d="M1832.95 162.185C1846.9 162.185 1858.21 150.394 1858.21 135.849C1844.26 135.849 1832.95 147.64 1832.95 162.185Z" fill="#51CAF4"/>
<path d="M1826.26 69.336C1812.31 69.336 1801 57.5451 1801 43C1814.95 43 1826.26 54.7909 1826.26 69.336Z" fill="#51CAF4"/>
<path d="M2062.11 236H2058C2058 227.519 2060.11 223.234 2062.16 219.088C2064.08 215.196 2065.89 211.519 2065.89 204C2065.89 196.481 2064.08 192.804 2062.16 188.912C2060.11 184.767 2058 180.481 2058 172C2058 163.52 2060.11 159.234 2062.16 155.089C2064.08 151.196 2065.89 147.52 2065.89 140H2070C2070 148.481 2067.89 152.767 2065.84 156.912C2063.92 160.804 2062.11 164.481 2062.11 172C2062.11 179.52 2063.92 183.196 2065.84 187.089C2067.89 191.234 2070 195.519 2070 204C2070 212.481 2067.89 216.766 2065.84 220.911C2063.92 224.804 2062.11 228.48 2062.11 236Z" fill="#378CE7"/>
<path d="M2060 166C2048.95 166 2040 156.598 2040 145C2051.05 145 2060 154.402 2060 166Z" fill="#378CE7"/>
<path d="M2065 216C2053.95 216 2045 207.046 2045 196C2056.05 196 2065 204.954 2065 216Z" fill="#378CE7"/>
<path d="M2065 189C2076.05 189 2085 180.046 2085 169C2073.95 169 2065 177.954 2065 189Z" fill="#378CE7"/>
<path d="M1989.07 196.483L1977.1 199.206L1968.38 182.331L1978.53 166.463L1973.55 163L1964.6 176.985L1958.56 169.576L1954 173.619L1962.41 183.929L1971.53 201.587L1957.85 209.947V229.692H1963.84V213.524L1976.64 205.701L1990.35 202.583L1989.07 196.483Z" fill="#3C467B"/>
<path d="M1076.28 194.483L1088.25 197.206L1096.96 180.331L1086.82 164.463L1091.8 161L1100.74 174.985L1106.79 167.576L1111.35 171.619L1102.94 181.929L1093.82 199.587L1107.5 207.947V227.692H1101.51V211.524L1088.71 203.701L1075 200.583L1076.28 194.483Z" fill="#3C467B"/>
<path d="M1220.64 99.5825C1235.23 97.9871 1246.64 85.0884 1246.64 69.4615H1240.4C1240.4 81.4163 1231.9 91.3354 1220.87 92.9995C1220.69 81.6463 1217.72 75.7506 1214.85 70.0439C1212.55 65.4748 1210.36 61.1064 1209.73 53.5988C1224.02 51.7101 1235.11 38.9642 1235.11 23.5604H1228.87C1228.87 35.4305 1220.49 45.2969 1209.57 47.0648C1209.87 37.9134 1212.29 33.1015 1214.85 28.0294C1217.81 22.1449 1220.88 16.0607 1220.88 4H1214.64C1214.64 14.4579 1212.06 19.5822 1209.33 25.0073C1206.52 30.5793 1203.63 36.335 1203.33 47.1718C1192.03 45.7617 1183.24 35.7137 1183.24 23.5598H1177C1177 39.3528 1188.66 52.3547 1203.47 53.7228C1204.15 62.7774 1206.78 67.9976 1209.33 73.065C1211.97 78.3064 1214.46 83.2817 1214.62 93.0416C1203.44 91.5223 1194.77 81.5302 1194.77 69.461H1188.53C1188.53 85.0283 1199.86 97.8849 1214.37 99.5601C1213.64 106.511 1211.53 110.699 1209.33 115.078C1206.38 120.94 1203.33 127.002 1203.3 138.971C1192.01 137.549 1183.24 127.507 1183.24 115.363H1177C1177 131.212 1188.74 144.249 1203.63 145.538C1204.5 153.536 1206.94 158.401 1209.33 163.134C1212.06 168.559 1214.64 173.682 1214.64 184.139C1214.64 184.382 1214.63 184.608 1214.63 184.845C1203.44 183.328 1194.77 173.335 1194.77 161.263H1188.53C1188.53 176.753 1199.74 189.556 1214.15 191.334C1213.28 197.286 1211.35 201.136 1209.33 205.144C1206.36 211.028 1203.3 217.112 1203.3 229.172H1209.54C1209.54 218.715 1212.12 213.591 1214.85 208.166C1217.15 203.6 1219.51 198.911 1220.45 191.403C1235.13 189.899 1246.64 176.957 1246.64 161.263H1240.4C1240.4 173.217 1231.9 183.135 1220.87 184.801C1220.87 184.58 1220.88 184.363 1220.88 184.139C1220.88 172.079 1217.81 165.995 1214.85 160.111C1212.73 155.901 1210.7 151.86 1209.9 145.377C1224.11 143.407 1235.11 130.702 1235.11 115.362H1228.87C1228.87 127.243 1220.47 137.117 1209.54 138.872C1209.58 128.576 1212.14 123.483 1214.85 118.1C1217.32 113.189 1219.87 108.134 1220.64 99.5825Z" fill="#6E8CFB"/>
<path opacity="0.68" d="M113.638 102.582C128.23 100.987 139.641 88.0884 139.641 72.4615H133.404C133.404 84.4163 124.9 94.3354 113.868 95.9995C113.691 84.6463 110.723 78.7506 107.85 73.0439C105.549 68.4748 103.362 64.1064 102.727 56.5988C117.019 54.7101 128.11 41.9642 128.11 26.5604H121.873C121.873 38.4305 113.489 48.2969 102.57 50.0648C102.874 40.9134 105.295 36.1015 107.849 31.0294C110.812 25.1449 113.877 19.0607 113.877 7H107.64C107.64 17.4579 105.059 22.5822 102.328 28.0073C99.5224 33.5793 96.6275 39.335 96.3282 50.1718C85.028 48.7617 76.2366 38.7137 76.2366 26.5598H70C70 42.3528 81.6567 55.3547 96.4712 56.7228C97.1509 65.7774 99.7757 70.9976 102.327 76.065C104.966 81.3064 107.457 86.2817 107.624 96.0416C96.437 94.5223 87.7672 84.5302 87.7672 72.461H81.5305C81.5305 88.0283 92.8563 100.885 107.368 102.56C106.638 109.511 104.533 113.699 102.327 118.078C99.3758 123.94 96.3252 130.002 96.3017 141.971C85.0137 140.549 76.2361 130.507 76.2361 118.363H70C70 134.212 81.7404 147.249 96.63 148.538C97.4966 156.536 99.9442 161.401 102.327 166.134C105.06 171.559 107.64 176.682 107.64 187.139C107.64 187.382 107.632 187.608 107.628 187.845C96.4391 186.328 87.7666 176.335 87.7666 164.263H81.53C81.53 179.753 92.744 192.556 107.152 194.334C106.278 200.286 104.346 204.136 102.327 208.144C99.3641 214.028 96.3002 220.112 96.3002 232.172H102.537C102.537 221.715 105.117 216.591 107.849 211.166C110.149 206.6 112.508 201.911 113.449 194.403C128.131 192.899 139.64 179.957 139.64 164.263H133.403C133.403 176.217 124.901 186.135 113.87 187.801C113.872 187.58 113.875 187.363 113.875 187.139C113.875 175.079 110.811 168.995 107.849 163.111C105.728 158.901 103.705 154.86 102.902 148.377C117.11 146.407 128.109 133.702 128.109 118.362H121.872C121.872 130.243 113.473 140.117 102.539 141.872C102.579 131.576 105.137 126.483 107.848 121.1C110.323 116.189 112.866 111.134 113.638 102.582Z" fill="#378CE7"/>
<path d="M162.638 106.688C177.23 105.158 188.641 92.7847 188.641 77.7945H182.404C182.404 89.2622 173.9 98.7772 162.868 100.374C162.691 89.4828 159.723 83.8274 156.85 78.3532C154.549 73.9702 152.362 69.7798 151.727 62.5781C166.019 60.7663 177.11 48.5397 177.11 33.7634H170.873C170.873 45.15 162.489 54.6144 151.57 56.3103C151.874 47.5317 154.295 42.9159 156.849 38.0504C159.812 32.4056 162.877 26.5694 162.877 15H156.64C156.64 25.0318 154.059 29.9473 151.328 35.1514C148.522 40.4964 145.627 46.0176 145.328 56.4129C134.028 55.0602 125.237 45.4216 125.237 33.7629H119C119 48.9125 130.657 61.3847 145.471 62.697C146.151 71.3827 148.776 76.3902 151.327 81.2511C153.966 86.279 156.457 91.0516 156.624 100.414C145.437 98.9565 136.767 89.3715 136.767 77.794H130.531C130.531 92.727 141.856 105.06 156.368 106.667C155.638 113.335 153.533 117.352 151.327 121.553C148.376 127.176 145.325 132.991 145.302 144.472C134.014 143.108 125.236 133.475 125.236 121.826H119C119 137.029 130.74 149.535 145.63 150.771C146.497 158.443 148.944 163.11 151.327 167.651C154.06 172.854 156.64 177.769 156.64 187.8C156.64 188.033 156.632 188.249 156.628 188.477C145.439 187.022 136.767 177.436 136.767 165.856H130.53C130.53 180.715 141.744 192.996 156.152 194.701C155.278 200.411 153.346 204.105 151.327 207.949C148.364 213.594 145.3 219.43 145.3 230.998H151.537C151.537 220.967 154.117 216.052 156.849 210.848C159.149 206.468 161.508 201.97 162.449 194.768C177.131 193.325 188.64 180.91 188.64 165.856H182.403C182.403 177.322 173.901 186.837 162.87 188.435C162.872 188.223 162.875 188.014 162.875 187.799C162.875 176.232 159.811 170.395 156.849 164.751C154.728 160.712 152.705 156.835 151.902 150.617C166.11 148.727 177.109 136.54 177.109 121.825H170.872C170.872 133.222 162.473 142.694 151.539 144.377C151.579 134.501 154.137 129.615 156.848 124.451C159.323 119.74 161.866 114.891 162.638 106.688Z" fill="#378CE7"/>
<path d="M384.438 153.061C392.61 152.175 399 145.015 399 136.34H395.507C395.507 142.976 390.745 148.483 384.567 149.406C384.468 143.104 382.806 139.831 381.196 136.663C379.908 134.127 378.683 131.702 378.328 127.534C386.331 126.485 392.542 119.41 392.542 110.859H389.05C389.05 117.448 384.354 122.925 378.24 123.907C378.41 118.826 379.766 116.155 381.196 113.339C382.856 110.073 384.572 106.695 384.572 100H381.079C381.079 105.805 379.634 108.65 378.104 111.662C376.533 114.755 374.912 117.95 374.744 123.966C368.416 123.183 363.493 117.605 363.493 110.858H360C360 119.625 366.528 126.843 374.824 127.603C375.205 132.629 376.675 135.527 378.104 138.34C379.582 141.25 380.977 144.012 381.07 149.43C374.805 148.586 369.95 143.039 369.95 136.339H366.457C366.457 144.981 372.8 152.118 380.927 153.048C380.518 156.907 379.339 159.232 378.104 161.663C376.451 164.917 374.743 168.282 374.729 174.927C368.408 174.137 363.492 168.563 363.492 161.821H360C360 170.619 366.575 177.856 374.913 178.572C375.399 183.012 376.769 185.713 378.104 188.34C379.634 191.352 381.079 194.196 381.079 200.001C381.079 200.136 381.074 200.261 381.073 200.393C374.806 199.55 369.95 194.003 369.95 187.302H366.457C366.457 195.901 372.737 203.008 380.805 203.995C380.316 207.299 379.234 209.436 378.104 211.661C376.444 214.928 374.729 218.305 374.729 225H378.221C378.221 219.195 379.666 216.35 381.196 213.339C382.484 210.804 383.805 208.201 384.332 204.033C392.554 203.198 398.999 196.014 398.999 187.301H395.507C395.507 193.937 390.745 199.443 384.568 200.368C384.569 200.246 384.571 200.125 384.571 200.001C384.571 193.306 382.855 189.929 381.196 186.662C380.008 184.325 378.875 182.081 378.426 178.483C386.382 177.389 392.542 170.336 392.542 161.821H389.049C389.049 168.416 384.346 173.898 378.223 174.872C378.245 169.156 379.677 166.329 381.196 163.34C382.582 160.614 384.006 157.808 384.438 153.061Z" fill="#378CE7"/>
<path d="M538.438 157.061C546.61 156.175 553 149.015 553 140.34H549.507C549.507 146.976 544.745 152.483 538.567 153.406C538.468 147.104 536.806 143.831 535.196 140.663C533.908 138.127 532.683 135.702 532.328 131.534C540.331 130.485 546.542 123.41 546.542 114.859H543.05C543.05 121.448 538.354 126.925 532.24 127.907C532.41 122.826 533.766 120.155 535.196 117.339C536.856 114.073 538.572 110.695 538.572 104H535.079C535.079 109.805 533.634 112.65 532.104 115.662C530.533 118.755 528.912 121.95 528.744 127.966C522.416 127.183 517.493 121.605 517.493 114.858H514C514 123.625 520.528 130.843 528.824 131.603C529.205 136.629 530.675 139.527 532.104 142.34C533.582 145.25 534.977 148.012 535.07 153.43C528.805 152.586 523.95 147.039 523.95 140.339H520.457C520.457 148.981 526.8 156.118 534.927 157.048C534.518 160.907 533.339 163.232 532.104 165.663C530.451 168.917 528.743 172.282 528.729 178.927C522.408 178.137 517.492 172.563 517.492 165.821H514C514 174.619 520.575 181.856 528.913 182.572C529.399 187.012 530.769 189.713 532.104 192.34C533.634 195.352 535.079 198.196 535.079 204.001C535.079 204.136 535.074 204.261 535.073 204.393C528.806 203.55 523.95 198.003 523.95 191.302H520.457C520.457 199.901 526.737 207.008 534.805 207.995C534.316 211.299 533.234 213.436 532.104 215.661C530.444 218.928 528.729 222.305 528.729 229H532.221C532.221 223.195 533.666 220.35 535.196 217.339C536.484 214.804 537.805 212.201 538.332 208.033C546.554 207.198 552.999 200.014 552.999 191.301H549.507C549.507 197.937 544.745 203.443 538.568 204.368C538.569 204.246 538.571 204.125 538.571 204.001C538.571 197.306 536.855 193.929 535.196 190.662C534.008 188.325 532.875 186.081 532.426 182.483C540.382 181.389 546.542 174.336 546.542 165.821H543.049C543.049 172.416 538.346 177.898 532.223 178.872C532.245 173.156 533.677 170.329 535.196 167.34C536.582 164.614 538.006 161.808 538.438 157.061Z" fill="#9BC9CC" fill-opacity="0.72"/>
<path d="M424.638 95.5825C439.23 93.9871 450.641 81.0884 450.641 65.4615H444.404C444.404 77.4163 435.9 87.3354 424.868 88.9995C424.691 77.6463 421.723 71.7506 418.85 66.0439C416.549 61.4748 414.362 57.1064 413.727 49.5988C428.019 47.7101 439.11 34.9642 439.11 19.5604H432.873C432.873 31.4305 424.489 41.2969 413.57 43.0648C413.874 33.9134 416.295 29.1015 418.849 24.0294C421.812 18.1449 424.877 12.0607 424.877 0H418.64C418.64 10.4579 416.059 15.5822 413.328 21.0073C410.522 26.5793 407.627 32.335 407.328 43.1718C396.028 41.7617 387.237 31.7137 387.237 19.5598H381C381 35.3528 392.657 48.3547 407.471 49.7228C408.151 58.7774 410.776 63.9976 413.327 69.065C415.966 74.3064 418.457 79.2817 418.624 89.0416C407.437 87.5223 398.767 77.5302 398.767 65.461H392.531C392.531 81.0283 403.856 93.8849 418.368 95.5601C417.638 102.511 415.533 106.699 413.327 111.078C410.376 116.94 407.325 123.002 407.302 134.971C396.014 133.549 387.236 123.507 387.236 111.363H381C381 127.212 392.74 140.249 407.63 141.538C408.497 149.536 410.944 154.401 413.327 159.134C416.06 164.559 418.64 169.682 418.64 180.139C418.64 180.382 418.632 180.608 418.628 180.845C407.439 179.328 398.767 169.335 398.767 157.263H392.53C392.53 172.753 403.744 185.556 418.152 187.334C417.278 193.286 415.346 197.136 413.327 201.144C410.364 207.028 407.3 213.112 407.3 225.172H413.537C413.537 214.715 416.117 209.591 418.849 204.166C421.149 199.6 423.508 194.911 424.449 187.403C439.131 185.899 450.64 172.957 450.64 157.263H444.403C444.403 169.217 435.901 179.135 424.87 180.801C424.872 180.58 424.875 180.363 424.875 180.139C424.875 168.079 421.811 161.995 418.849 156.111C416.728 151.901 414.705 147.86 413.902 141.377C428.11 139.407 439.109 126.702 439.109 111.362H432.872C432.872 123.243 424.473 133.117 413.539 134.872C413.579 124.576 416.137 119.483 418.848 114.1C421.323 109.189 423.866 104.134 424.638 95.5825Z" fill="#9BC9CC"/>
<path d="M2020.54 192.98L2004.75 205.78V179.981L2022.98 169.616L2029.54 154.298L2049.01 148.281L2047.3 142.296L2032.75 146.794L2039.5 131.029L2061.19 122.473L2064.55 96.8918L2084.81 82.1692L2081.38 77.048L2065.66 88.4771L2067.16 77.047L2061.23 76.1994L2056.42 112.798L2040.14 92.5322L2035.55 96.5398L2053.46 118.846L2038.18 124.875L2023.29 106.766L2027.03 85.1644L2021.14 84.0546L2017.8 103.301L2000.92 95.9865L1998.62 101.752L2018.28 110.268L2033.77 129.102L2020.24 160.696L2012.33 147.24L2007.23 150.502L2016.46 166.212L2001.79 174.553L1982.51 163.067L1991.9 152.818L1987.57 148.507L1978.97 157.892L1974.74 144.667L1989.83 123.885L1985.05 120.118L1970.13 140.67L1949.02 136.542L1968.71 107.067L1963.79 103.499L1946.08 130.005L1942.97 97.5391L1956.79 69.83L1982.13 64.4298L1980.93 58.3135L1959.34 62.9142L1967.93 37.042L1962.27 35L1954.78 57.5595L1949.03 40.3671L1943.38 42.4235L1951.54 66.8257L1939.81 90.3433L1925.91 64.3549L1920.68 67.3957L1936.98 97.8791L1938.34 111.963L1922 105.924L1920 111.808L1938.99 118.831L1941.16 141.357L1969.12 146.824L1973.24 159.714L1957.66 156.554L1956.51 162.683L1976.65 166.764L1998.77 179.94V237.24H2004.75V213.688L2024.22 197.908L2020.54 192.98Z" fill="#67C6E3"/>
<path d="M278.542 186.98L262.755 199.78V173.981L280.984 163.616L287.54 148.298L307.005 142.281L305.303 136.296L290.752 140.794L297.499 125.029L319.189 116.473L322.55 90.8918L342.806 76.1692L339.38 71.048L323.656 82.4771L325.158 71.047L319.225 70.1994L314.416 106.798L298.141 86.5322L293.548 90.5398L311.463 112.846L296.178 118.875L281.289 100.766L285.032 79.1644L279.138 78.0546L275.803 97.3015L258.916 89.9865L256.618 95.7518L276.281 104.268L291.766 123.102L278.244 154.696L270.332 141.24L265.226 144.502L274.463 160.212L259.794 168.553L240.513 157.067L249.899 146.818L245.566 142.507L236.973 151.892L232.744 138.667L247.829 117.885L243.053 114.118L228.135 134.67L207.016 130.542L226.707 101.067L221.792 97.4993L204.085 124.005L200.97 91.5391L214.792 63.83L240.129 58.4298L238.93 52.3135L217.343 56.9142L225.934 31.042L220.274 29L212.783 51.5595L207.03 34.3671L201.375 36.4235L209.541 60.8257L197.81 84.3433L183.907 58.3549L178.677 61.3957L194.985 91.8791L196.336 105.963L180.002 99.924L178 105.808L196.995 112.831L199.155 135.357L227.121 140.824L231.242 153.714L215.657 150.554L214.514 156.683L234.648 160.764L256.766 173.94V231.24H262.755V207.688L282.218 191.908L278.542 186.98Z" fill="#80D8B6"/>
</svg>
